STARTFONT 2.1
FONT -FontForge-New Science Medium-Medium-R-Normal--21-200-75-75-P-118-ISO10646-1
SIZE 20 75 75
FONTBOUNDINGBOX 27 29 -3 -5
COMMENT "Generated by fontforge, http://fontforge.sourceforge.net"
COMMENT "Copyright \(c\) 2023 by Newlyn Works Limited. All rights reserved."
STARTPROPERTIES 39
FOUNDRY "FontForge"
FAMILY_NAME "New Science Medium"
WEIGHT_NAME "Medium"
SLANT "R"
SETWIDTH_NAME "Normal"
ADD_STYLE_NAME ""
PIXEL_SIZE 21
POINT_SIZE 200
RESOLUTION_X 75
RESOLUTION_Y 75
SPACING "P"
AVERAGE_WIDTH 118
CHARSET_REGISTRY "ISO10646"
CHARSET_ENCODING "1"
FONTNAME_REGISTRY ""
CHARSET_COLLECTIONS "ISO8859-2 ISO8859-9 ISO8859-4 ISO10646-1"
FONT_NAME "NewScience-Medium"
FACE_NAME "New Science Medium"
COPYRIGHT "Copyright \(c\) 2023 by Newlyn Works Limited. All rights reserved."
FONT_VERSION "002.101"
FONT_ASCENT 17
FONT_DESCENT 4
UNDERLINE_POSITION -3
UNDERLINE_THICKNESS 2
X_HEIGHT 10
CAP_HEIGHT 15
RAW_ASCENT 803
RAW_DESCENT 196
NORM_SPACE 6
RELATIVE_WEIGHT 50
RELATIVE_SETWIDTH 50
SUPERSCRIPT_X 0
SUPERSCRIPT_Y 7
SUPERSCRIPT_SIZE 12
SUBSCRIPT_X 0
SUBSCRIPT_Y 1
SUBSCRIPT_SIZE 12
AVG_LOWERCASE_WIDTH 112
AVG_UPPERCASE_WIDTH 151
ENDPROPERTIES
CHARS 524
STARTCHAR space
ENCODING 32
SWIDTH 272 0
DWIDTH 6 0
BBX 1 1 0 0
BITMAP
00
ENDCHAR
STARTCHAR exclam
ENCODING 33
SWIDTH 245 0
DWIDTH 5 0
BBX 3 16 1 0
BITMAP
E0
60
60
60
60
60
60
60
60
60
60
00
00
60
60
60
ENDCHAR
STARTCHAR quotedbl
ENCODING 34
SWIDTH 386 0
DWIDTH 8 0
BBX 6 6 1 10
BITMAP
CC
CC
CC
CC
CC
CC
ENDCHAR
STARTCHAR numbersign
ENCODING 35
SWIDTH 690 0
DWIDTH 15 0
BBX 13 16 1 0
BITMAP
0C60
0C60
0C60
0860
7FF8
7FF8
18C0
18C0
18C0
3080
FFF0
FFF0
3180
3180
6100
6300
ENDCHAR
STARTCHAR dollar
ENCODING 36
SWIDTH 721 0
DWIDTH 15 0
BBX 13 19 1 -2
BITMAP
0300
3FE0
7FF0
E330
C338
C318
C300
E300
7FE0
3FF8
0338
0318
C318
C318
E338
7FF0
3FE0
0300
0300
ENDCHAR
STARTCHAR percent
ENCODING 37
SWIDTH 814 0
DWIDTH 17 0
BBX 15 16 1 0
BITMAP
7830
CC30
8460
8460
84C0
84C0
CD80
7980
0300
037E
0662
0642
0C42
0C42
1866
183E
ENDCHAR
STARTCHAR ampersand
ENCODING 38
SWIDTH 788 0
DWIDTH 17 0
BBX 15 16 1 0
BITMAP
1FC0
7FF0
7030
6030
6030
7000
3800
7C00
EF18
C798
C1D8
C0F8
C078
E03C
7FFE
3FE2
ENDCHAR
STARTCHAR quotesingle
ENCODING 39
SWIDTH 214 0
DWIDTH 5 0
BBX 2 6 1 10
BITMAP
C0
C0
C0
C0
C0
C0
ENDCHAR
STARTCHAR parenleft
ENCODING 40
SWIDTH 330 0
DWIDTH 7 0
BBX 5 16 1 0
BITMAP
38
78
60
60
C0
C0
C0
C0
C0
C0
C0
E0
60
60
78
38
ENDCHAR
STARTCHAR parenright
ENCODING 41
SWIDTH 330 0
DWIDTH 7 0
BBX 5 16 1 0
BITMAP
E0
F0
30
30
38
18
18
18
18
18
18
38
30
30
F0
E0
ENDCHAR
STARTCHAR asterisk
ENCODING 42
SWIDTH 464 0
DWIDTH 10 0
BBX 8 8 1 8
BITMAP
18
18
FF
7C
3C
FF
9A
18
ENDCHAR
STARTCHAR plus
ENCODING 43
SWIDTH 597 0
DWIDTH 13 0
BBX 10 10 1 2
BITMAP
0C00
0C00
0C00
0C00
FFC0
FFC0
0C00
0C00
0C00
0C00
ENDCHAR
STARTCHAR comma
ENCODING 44
SWIDTH 234 0
DWIDTH 5 0
BBX 3 6 1 -3
BITMAP
E0
E0
E0
40
C0
80
ENDCHAR
STARTCHAR hyphen
ENCODING 45
SWIDTH 392 0
DWIDTH 8 0
BBX 6 2 1 5
BITMAP
FC
FC
ENDCHAR
STARTCHAR period
ENCODING 46
SWIDTH 225 0
DWIDTH 5 0
BBX 2 3 1 0
BITMAP
C0
C0
C0
ENDCHAR
STARTCHAR slash
ENCODING 47
SWIDTH 441 0
DWIDTH 9 0
BBX 8 16 1 0
BITMAP
03
06
06
06
0C
0C
18
18
30
30
30
60
60
C0
C0
80
ENDCHAR
STARTCHAR zero
ENCODING 48
SWIDTH 745 0
DWIDTH 16 0
BBX 13 16 1 0
BITMAP
1FE0
3FF0
7038
6018
E018
C018
C018
C018
C018
C018
C018
E018
6018
7038
3FF0
1FE0
ENDCHAR
STARTCHAR one
ENCODING 49
SWIDTH 435 0
DWIDTH 9 0
BBX 7 16 1 0
BITMAP
1E
3E
7E
6E
CE
8E
0E
0E
0E
0E
0E
0E
0E
0E
0E
0E
ENDCHAR
STARTCHAR two
ENCODING 50
SWIDTH 711 0
DWIDTH 15 0
BBX 13 16 1 0
BITMAP
1FE0
7FF0
6030
E038
E018
0038
0038
00F0
1FE0
7F80
7000
E000
C000
C000
FFF8
FFF8
ENDCHAR
STARTCHAR three
ENCODING 51
SWIDTH 716 0
DWIDTH 15 0
BBX 13 16 1 0
BITMAP
3FE0
7FF0
E030
C038
C038
0038
0030
07E0
07F0
0030
0018
C018
C018
E038
7FF0
3FE0
ENDCHAR
STARTCHAR four
ENCODING 52
SWIDTH 709 0
DWIDTH 15 0
BBX 13 16 1 0
BITMAP
00E0
01E0
03E0
0760
0E60
1C60
3860
3060
6060
C060
FFF8
FFF8
0060
0060
0060
0060
ENDCHAR
STARTCHAR five
ENCODING 53
SWIDTH 710 0
DWIDTH 15 0
BBX 13 16 1 0
BITMAP
FFF0
FFF0
E000
E000
E000
EFE0
FFF0
E030
E018
0018
0018
C018
C018
E030
7FF0
3FE0
ENDCHAR
STARTCHAR six
ENCODING 54
SWIDTH 723 0
DWIDTH 15 0
BBX 13 16 1 0
BITMAP
1FE0
3FF0
7038
6018
E018
C000
CFE0
DFF0
E038
E018
E018
E018
6018
6038
7FF0
1FE0
ENDCHAR
STARTCHAR seven
ENCODING 55
SWIDTH 648 0
DWIDTH 14 0
BBX 13 16 0 0
BITMAP
FFF8
FFF8
0038
0030
0070
0060
00E0
00C0
0180
0380
0300
0700
0600
0E00
0C00
1C00
ENDCHAR
STARTCHAR eight
ENCODING 56
SWIDTH 725 0
DWIDTH 15 0
BBX 13 16 1 0
BITMAP
3FE0
7FF0
6038
E018
E018
E018
6030
3FF0
3FF0
6038
C018
C018
C018
E038
7FF0
3FE0
ENDCHAR
STARTCHAR nine
ENCODING 57
SWIDTH 725 0
DWIDTH 15 0
BBX 13 16 1 0
BITMAP
3FC0
7FF0
E030
C038
C018
C018
C018
E038
7FF8
3FD8
0018
C018
C038
E030
7FF0
3FC0
ENDCHAR
STARTCHAR colon
ENCODING 58
SWIDTH 226 0
DWIDTH 5 0
BBX 2 11 1 0
BITMAP
C0
C0
C0
00
00
00
00
00
C0
C0
C0
ENDCHAR
STARTCHAR semicolon
ENCODING 59
SWIDTH 251 0
DWIDTH 5 0
BBX 3 14 1 -3
BITMAP
60
60
60
00
00
00
00
00
60
60
60
60
40
C0
ENDCHAR
STARTCHAR less
ENCODING 60
SWIDTH 597 0
DWIDTH 13 0
BBX 10 10 1 2
BITMAP
0040
01C0
0F80
3E00
F000
E000
7800
1F00
07C0
00C0
ENDCHAR
STARTCHAR equal
ENCODING 61
SWIDTH 597 0
DWIDTH 13 0
BBX 10 6 1 4
BITMAP
FFC0
FFC0
0000
0000
FFC0
FFC0
ENDCHAR
STARTCHAR greater
ENCODING 62
SWIDTH 597 0
DWIDTH 13 0
BBX 11 10 1 2
BITMAP
8000
F000
7C00
0F80
03E0
00E0
07C0
1F00
F800
E000
ENDCHAR
STARTCHAR question
ENCODING 63
SWIDTH 570 0
DWIDTH 12 0
BBX 10 16 1 0
BITMAP
7F00
FFC0
C0C0
C0C0
C0C0
00C0
00C0
07C0
0F00
1C00
1800
0000
0000
1800
1800
1800
ENDCHAR
STARTCHAR at
ENCODING 64
SWIDTH 938 0
DWIDTH 20 0
BBX 18 16 1 -2
BITMAP
0FFC00
3FFF00
600180
43E980
C7E880
CE18C0
CC18C0
CC08C0
CC08C0
CC08C0
CE1880
C7FF80
43EF00
600000
700180
1FFF00
ENDCHAR
STARTCHAR A
ENCODING 65
SWIDTH 758 0
DWIDTH 16 0
BBX 16 16 0 0
BITMAP
03C0
03C0
07C0
0660
0660
0C70
0C30
1C30
1818
1818
3FFC
3FFC
300C
6006
6006
E007
ENDCHAR
STARTCHAR B
ENCODING 66
SWIDTH 737 0
DWIDTH 16 0
BBX 12 16 2 0
BITMAP
FFC0
FFE0
C070
C030
C030
C030
C070
FFE0
FFE0
C030
C030
C030
C030
C030
FFF0
FFC0
ENDCHAR
STARTCHAR C
ENCODING 67
SWIDTH 758 0
DWIDTH 16 0
BBX 14 16 1 0
BITMAP
1FE0
3FF8
7038
601C
E00C
C00C
C000
C000
C000
C000
C00C
E00C
601C
7038
3FF8
1FE0
ENDCHAR
STARTCHAR D
ENCODING 68
SWIDTH 767 0
DWIDTH 16 0
BBX 13 16 2 0
BITMAP
FFC0
FFE0
C070
C038
C018
C018
C018
C018
C018
C018
C018
C018
C038
C070
FFE0
FFC0
ENDCHAR
STARTCHAR E
ENCODING 69
SWIDTH 661 0
DWIDTH 14 0
BBX 11 16 2 0
BITMAP
FFE0
FFE0
C000
C000
C000
C000
C000
FFC0
FFC0
C000
C000
C000
C000
C000
FFE0
FFE0
ENDCHAR
STARTCHAR F
ENCODING 70
SWIDTH 633 0
DWIDTH 13 0
BBX 11 16 2 0
BITMAP
FFE0
FFE0
C000
C000
C000
C000
C000
FFC0
FFC0
C000
C000
C000
C000
C000
C000
C000
ENDCHAR
STARTCHAR G
ENCODING 71
SWIDTH 782 0
DWIDTH 16 0
BBX 14 16 1 0
BITMAP
1FE0
3FF8
701C
600C
E00C
C000
C000
C1FC
C1FC
C00C
C00C
E00C
600C
701C
3FF8
1FF0
ENDCHAR
STARTCHAR H
ENCODING 72
SWIDTH 782 0
DWIDTH 16 0
BBX 13 16 2 0
BITMAP
C018
C018
C018
C018
C018
C018
C018
FFF8
FFF8
C018
C018
C018
C018
C018
C018
C018
ENDCHAR
STARTCHAR I
ENCODING 73
SWIDTH 250 0
DWIDTH 5 0
BBX 2 16 2 0
BITMAP
C0
C0
C0
C0
C0
C0
C0
C0
C0
C0
C0
C0
C0
C0
C0
C0
ENDCHAR
STARTCHAR J
ENCODING 74
SWIDTH 643 0
DWIDTH 14 0
BBX 11 16 1 0
BITMAP
0060
0060
0060
0060
0060
0060
0060
0060
0060
0060
C060
C060
C060
C0E0
FFC0
3F80
ENDCHAR
STARTCHAR K
ENCODING 75
SWIDTH 701 0
DWIDTH 15 0
BBX 12 16 2 0
BITMAP
C070
C0E0
C1C0
C180
C300
C600
CE00
FC00
FC00
CE00
C700
C380
C1C0
C0E0
C060
C030
ENDCHAR
STARTCHAR L
ENCODING 76
SWIDTH 589 0
DWIDTH 12 0
BBX 10 16 2 0
BITMAP
C000
C000
C000
C000
C000
C000
C000
C000
C000
C000
C000
C000
C000
C000
FFC0
FFC0
ENDCHAR
STARTCHAR M
ENCODING 77
SWIDTH 1017 0
DWIDTH 21 0
BBX 18 16 2 0
BITMAP
E003C0
F003C0
F007C0
F006C0
D806C0
D80CC0
CC0CC0
CC18C0
CE18C0
C638C0
C630C0
C330C0
C360C0
C3E0C0
C1C0C0
C1C0C0
ENDCHAR
STARTCHAR N
ENCODING 78
SWIDTH 805 0
DWIDTH 17 0
BBX 13 16 2 0
BITMAP
E018
F018
F018
F818
D818
CC18
CE18
C618
C318
C398
C198
C1D8
C0D8
C078
C078
C038
ENDCHAR
STARTCHAR O
ENCODING 79
SWIDTH 803 0
DWIDTH 17 0
BBX 15 16 1 0
BITMAP
1FF0
3FF8
701C
600C
E00E
C00E
C00E
C006
C006
C00E
C00E
E00E
600C
701C
3FF8
1FF0
ENDCHAR
STARTCHAR P
ENCODING 80
SWIDTH 721 0
DWIDTH 15 0
BBX 12 16 2 0
BITMAP
FFC0
FFE0
C070
C030
C030
C030
C030
C030
C070
FFE0
FFC0
C000
C000
C000
C000
C000
ENDCHAR
STARTCHAR Q
ENCODING 81
SWIDTH 807 0
DWIDTH 17 0
BBX 16 16 1 0
BITMAP
1FF0
3FF8
701C
600C
E00C
C00E
C00E
C006
C006
C18E
C1EE
E07E
603C
701E
3FFF
1FF2
ENDCHAR
STARTCHAR R
ENCODING 82
SWIDTH 744 0
DWIDTH 16 0
BBX 12 16 2 0
BITMAP
FFC0
FFE0
C070
C030
C030
C030
C030
C070
FFE0
FFE0
C070
C030
C030
C030
C030
C030
ENDCHAR
STARTCHAR S
ENCODING 83
SWIDTH 719 0
DWIDTH 15 0
BBX 13 16 1 0
BITMAP
3FE0
7FF0
E030
C038
C018
C000
F000
7FE0
1FF8
0038
0018
C018
C018
E038
7FF0
3FE0
ENDCHAR
STARTCHAR T
ENCODING 84
SWIDTH 658 0
DWIDTH 14 0
BBX 13 16 0 0
BITMAP
FFF8
FFF8
0300
0300
0300
0300
0300
0300
0300
0300
0300
0300
0300
0300
0300
0300
ENDCHAR
STARTCHAR U
ENCODING 85
SWIDTH 781 0
DWIDTH 16 0
BBX 14 16 1 0
BITMAP
E00C
E00C
E00C
E00C
E00C
E00C
E00C
E00C
E00C
E00C
E00C
E00C
601C
7018
3FF8
1FE0
ENDCHAR
STARTCHAR V
ENCODING 86
SWIDTH 737 0
DWIDTH 15 0
BBX 15 16 0 0
BITMAP
E006
6006
600C
700C
301C
3818
1818
1830
1C30
0C30
0C60
0660
06E0
06C0
03C0
0380
ENDCHAR
STARTCHAR W
ENCODING 87
SWIDTH 1090 0
DWIDTH 23 0
BBX 22 16 0 0
BITMAP
E0380C
60380C
60680C
706C1C
306C18
306C18
30C618
38C630
18C630
188630
198330
0D8360
0D8360
0F01E0
0F01E0
0701C0
ENDCHAR
STARTCHAR X
ENCODING 88
SWIDTH 721 0
DWIDTH 15 0
BBX 15 16 0 0
BITMAP
600C
301C
3838
1C30
0C60
0EE0
07C0
0380
03C0
06C0
0EE0
1C70
1830
3018
701C
E00E
ENDCHAR
STARTCHAR Y
ENCODING 89
SWIDTH 712 0
DWIDTH 15 0
BBX 15 16 0 0
BITMAP
E00E
600C
3018
3838
1830
1C70
0C60
06C0
07C0
0380
0380
0380
0380
0380
0380
0380
ENDCHAR
STARTCHAR Z
ENCODING 90
SWIDTH 671 0
DWIDTH 14 0
BBX 12 16 1 0
BITMAP
FFF0
FFF0
0070
00E0
01C0
0180
0380
0700
0E00
1C00
1800
3000
7000
E000
FFF0
FFF0
ENDCHAR
STARTCHAR bracketleft
ENCODING 91
SWIDTH 325 0
DWIDTH 7 0
BBX 4 16 2 0
BITMAP
F0
F0
C0
C0
C0
C0
C0
C0
C0
C0
C0
C0
C0
C0
F0
F0
ENDCHAR
STARTCHAR backslash
ENCODING 92
SWIDTH 442 0
DWIDTH 9 0
BBX 9 16 0 0
BITMAP
C000
6000
6000
3000
3000
1800
1800
1800
0C00
0C00
0600
0600
0200
0300
0300
0180
ENDCHAR
STARTCHAR bracketright
ENCODING 93
SWIDTH 325 0
DWIDTH 7 0
BBX 4 16 1 0
BITMAP
F0
F0
30
30
30
30
30
30
30
30
30
30
30
30
F0
F0
ENDCHAR
STARTCHAR asciicircum
ENCODING 94
SWIDTH 591 0
DWIDTH 12 0
BBX 11 9 1 7
BITMAP
0E00
1E00
1F00
3300
3180
6180
60C0
C0C0
C060
ENDCHAR
STARTCHAR underscore
ENCODING 95
SWIDTH 531 0
DWIDTH 11 0
BBX 9 2 1 -3
BITMAP
FF80
FF80
ENDCHAR
STARTCHAR grave
ENCODING 96
SWIDTH 308 0
DWIDTH 6 0
BBX 4 3 1 13
BITMAP
E0
60
30
ENDCHAR
STARTCHAR a
ENCODING 97
SWIDTH 577 0
DWIDTH 12 0
BBX 10 11 1 0
BITMAP
3F00
7F80
C0C0
00C0
3FC0
7FC0
C0C0
C0C0
C1C0
FFC0
7EC0
ENDCHAR
STARTCHAR b
ENCODING 98
SWIDTH 621 0
DWIDTH 13 0
BBX 11 16 1 0
BITMAP
C000
C000
C000
C000
C000
DF80
DFC0
E0E0
C060
C060
C060
C060
C060
E0E0
DFC0
DF80
ENDCHAR
STARTCHAR c
ENCODING 99
SWIDTH 590 0
DWIDTH 12 0
BBX 10 11 1 0
BITMAP
3F80
7FC0
E0C0
C0C0
C000
C000
C000
C0C0
E0C0
7FC0
3F80
ENDCHAR
STARTCHAR d
ENCODING 100
SWIDTH 621 0
DWIDTH 13 0
BBX 11 16 1 0
BITMAP
0060
0060
0060
0060
0060
3F60
7F60
E0E0
C060
C060
C060
C060
C060
E0E0
7FE0
3F60
ENDCHAR
STARTCHAR e
ENCODING 101
SWIDTH 594 0
DWIDTH 12 0
BBX 10 11 1 0
BITMAP
3F00
7FC0
C0C0
C0C0
FFC0
FFC0
C000
C0C0
E0C0
7FC0
3F80
ENDCHAR
STARTCHAR f
ENCODING 102
SWIDTH 335 0
DWIDTH 7 0
BBX 6 16 1 0
BITMAP
3C
7C
60
60
60
FC
FC
60
60
60
60
60
60
60
60
60
ENDCHAR
STARTCHAR g
ENCODING 103
SWIDTH 615 0
DWIDTH 13 0
BBX 11 15 1 -4
BITMAP
3E60
7F60
E0E0
C0E0
C060
C060
C060
C0E0
E0E0
7FE0
3EE0
00E0
E0C0
7FC0
3F80
ENDCHAR
STARTCHAR h
ENCODING 104
SWIDTH 594 0
DWIDTH 12 0
BBX 10 16 1 0
BITMAP
C000
C000
C000
C000
C000
DF80
DFC0
E0C0
C0C0
C0C0
C0C0
C0C0
C0C0
C0C0
C0C0
C0C0
ENDCHAR
STARTCHAR i
ENCODING 105
SWIDTH 228 0
DWIDTH 5 0
BBX 2 16 1 0
BITMAP
C0
C0
C0
00
00
C0
C0
C0
C0
C0
C0
C0
C0
C0
C0
C0
ENDCHAR
STARTCHAR j
ENCODING 106
SWIDTH 228 0
DWIDTH 5 0
BBX 3 20 0 -4
BITMAP
60
60
60
00
00
60
60
60
60
60
60
60
60
60
60
60
60
60
E0
E0
ENDCHAR
STARTCHAR k
ENCODING 107
SWIDTH 519 0
DWIDTH 11 0
BBX 10 16 1 0
BITMAP
C000
C000
C000
C000
C000
C180
C300
C600
CC00
FC00
F800
CC00
C600
C700
C380
C1C0
ENDCHAR
STARTCHAR l
ENCODING 108
SWIDTH 228 0
DWIDTH 5 0
BBX 2 16 1 0
BITMAP
C0
C0
C0
C0
C0
C0
C0
C0
C0
C0
C0
C0
C0
C0
C0
C0
ENDCHAR
STARTCHAR m
ENCODING 109
SWIDTH 918 0
DWIDTH 19 0
BBX 17 11 1 0
BITMAP
DF3F00
DFBF00
E1C180
C0C180
C0C180
C0C180
C0C180
C0C180
C0C180
C0C180
C0C180
ENDCHAR
STARTCHAR n
ENCODING 110
SWIDTH 594 0
DWIDTH 12 0
BBX 10 11 1 0
BITMAP
DF80
DFC0
E0C0
C0C0
C0C0
C0C0
C0C0
C0C0
C0C0
C0C0
C0C0
ENDCHAR
STARTCHAR o
ENCODING 111
SWIDTH 612 0
DWIDTH 13 0
BBX 11 11 1 0
BITMAP
3F80
7FC0
E0C0
C060
C060
C060
C060
C060
E0C0
7FC0
3F80
ENDCHAR
STARTCHAR p
ENCODING 112
SWIDTH 621 0
DWIDTH 13 0
BBX 11 15 1 -4
BITMAP
DF80
FFC0
E0E0
C060
C060
C060
C060
C060
E0E0
DFC0
DF80
C000
C000
C000
C000
ENDCHAR
STARTCHAR q
ENCODING 113
SWIDTH 621 0
DWIDTH 13 0
BBX 11 15 1 -4
BITMAP
3F60
7FE0
E0E0
C060
C060
C060
C060
C060
E0E0
7F60
3F60
0060
0060
0060
0060
ENDCHAR
STARTCHAR r
ENCODING 114
SWIDTH 389 0
DWIDTH 8 0
BBX 7 11 1 0
BITMAP
DE
DE
E0
E0
C0
C0
C0
C0
C0
C0
C0
ENDCHAR
STARTCHAR s
ENCODING 115
SWIDTH 559 0
DWIDTH 12 0
BBX 10 11 1 0
BITMAP
7F00
FF80
C180
C000
F800
7F80
01C0
C0C0
C0C0
FFC0
7F00
ENDCHAR
STARTCHAR t
ENCODING 116
SWIDTH 367 0
DWIDTH 8 0
BBX 6 14 1 0
BITMAP
60
60
60
FC
FC
60
60
60
60
60
60
60
7C
3C
ENDCHAR
STARTCHAR u
ENCODING 117
SWIDTH 588 0
DWIDTH 12 0
BBX 10 11 1 0
BITMAP
C0C0
C0C0
C0C0
C0C0
C0C0
C0C0
C0C0
C0C0
E1C0
7FC0
3EC0
ENDCHAR
STARTCHAR v
ENCODING 118
SWIDTH 543 0
DWIDTH 11 0
BBX 11 11 0 0
BITMAP
E060
60E0
60C0
30C0
3180
3180
1980
1B00
1B00
0F00
0E00
ENDCHAR
STARTCHAR w
ENCODING 119
SWIDTH 831 0
DWIDTH 17 0
BBX 16 11 1 0
BITMAP
C383
C383
C3C6
C2C6
66C6
6644
666C
346C
3C6C
3C38
3C38
ENDCHAR
STARTCHAR x
ENCODING 120
SWIDTH 546 0
DWIDTH 11 0
BBX 10 11 1 0
BITMAP
C1C0
6180
7300
3600
1E00
1C00
1E00
3700
6300
E180
C0C0
ENDCHAR
STARTCHAR y
ENCODING 121
SWIDTH 546 0
DWIDTH 11 0
BBX 11 15 0 -4
BITMAP
E060
6060
60C0
30C0
3180
3980
1980
1B00
0F00
0E00
0E00
0600
0C00
7C00
7800
ENDCHAR
STARTCHAR z
ENCODING 122
SWIDTH 503 0
DWIDTH 11 0
BBX 9 11 1 0
BITMAP
FF80
FF80
0700
0600
0C00
1C00
3800
7000
E000
FF80
FF80
ENDCHAR
STARTCHAR braceleft
ENCODING 123
SWIDTH 334 0
DWIDTH 7 0
BBX 5 16 1 0
BITMAP
38
78
60
60
60
60
60
E0
E0
60
60
60
60
60
78
38
ENDCHAR
STARTCHAR bar
ENCODING 124
SWIDTH 248 0
DWIDTH 5 0
BBX 2 18 2 -1
BITMAP
C0
C0
C0
C0
C0
C0
C0
C0
C0
C0
C0
C0
C0
C0
C0
C0
C0
C0
ENDCHAR
STARTCHAR braceright
ENCODING 125
SWIDTH 334 0
DWIDTH 7 0
BBX 5 16 1 0
BITMAP
E0
F0
30
30
30
30
30
38
38
30
30
30
30
30
F0
E0
ENDCHAR
STARTCHAR asciitilde
ENCODING 126
SWIDTH 597 0
DWIDTH 13 0
BBX 10 4 1 5
BITMAP
3040
7CC0
C7C0
C380
ENDCHAR
STARTCHAR uni00A0
ENCODING 160
SWIDTH 272 0
DWIDTH 6 0
BBX 1 1 0 0
BITMAP
00
ENDCHAR
STARTCHAR exclamdown
ENCODING 161
SWIDTH 245 0
DWIDTH 5 0
BBX 3 15 1 -4
BITMAP
60
60
60
00
00
60
60
60
60
60
60
60
60
60
E0
ENDCHAR
STARTCHAR cent
ENCODING 162
SWIDTH 601 0
DWIDTH 13 0
BBX 11 17 1 -1
BITMAP
0400
0400
0400
3F80
7FC0
64C0
C4E0
C400
C400
C400
C4E0
64C0
7FC0
3F80
0400
0400
0400
ENDCHAR
STARTCHAR sterling
ENCODING 163
SWIDTH 725 0
DWIDTH 15 0
BBX 13 16 1 0
BITMAP
0FE0
1FF0
3838
3018
3018
3000
3000
FF80
FF80
3000
3000
3000
3000
6000
FFF8
FFF8
ENDCHAR
STARTCHAR currency
ENCODING 164
SWIDTH 688 0
DWIDTH 14 0
BBX 12 13 1 1
BITMAP
4030
FFB0
7FE0
7060
6060
6030
6030
6030
6060
7060
7FE0
FFF0
4030
ENDCHAR
STARTCHAR yen
ENCODING 165
SWIDTH 734 0
DWIDTH 15 0
BBX 14 16 1 0
BITMAP
C00C
E018
6038
7030
3070
3860
18C0
0DC0
0F80
7FF0
7FF0
0300
7FF0
7FF0
0300
0300
ENDCHAR
STARTCHAR brokenbar
ENCODING 166
SWIDTH 248 0
DWIDTH 5 0
BBX 2 18 2 -1
BITMAP
C0
C0
C0
C0
C0
C0
C0
00
00
00
00
C0
C0
C0
C0
C0
C0
C0
ENDCHAR
STARTCHAR section
ENCODING 167
SWIDTH 705 0
DWIDTH 15 0
BBX 13 20 1 -4
BITMAP
3FC0
7FF0
E030
C030
C000
6000
3FE0
7FF0
E038
C018
C018
E030
7FE0
3FF0
0030
C018
C018
E038
7FF0
3FE0
ENDCHAR
STARTCHAR dieresis
ENCODING 168
SWIDTH 360 0
DWIDTH 8 0
BBX 6 3 1 13
BITMAP
CC
CC
CC
ENDCHAR
STARTCHAR copyright
ENCODING 169
SWIDTH 881 0
DWIDTH 19 0
BBX 16 16 1 0
BITMAP
0FF8
3FFE
6006
43E3
C7F3
CC31
CC19
CC01
CC01
CC19
CC31
C7F3
43E3
6006
3F7E
0FF8
ENDCHAR
STARTCHAR ordfeminine
ENCODING 170
SWIDTH 487 0
DWIDTH 10 0
BBX 8 9 1 7
BITMAP
7E
67
C3
03
7F
C3
C3
E7
7F
ENDCHAR
STARTCHAR guillemotleft
ENCODING 171
SWIDTH 465 0
DWIDTH 10 0
BBX 8 9 1 2
BITMAP
33
36
66
6C
CC
CC
66
66
33
ENDCHAR
STARTCHAR logicalnot
ENCODING 172
SWIDTH 597 0
DWIDTH 13 0
BBX 10 6 1 4
BITMAP
FFC0
FFC0
00C0
00C0
00C0
00C0
ENDCHAR
STARTCHAR registered
ENCODING 174
SWIDTH 547 0
DWIDTH 11 0
BBX 9 9 1 7
BITMAP
3F00
4180
9E80
9280
9E80
9280
9280
4180
7F00
ENDCHAR
STARTCHAR macron
ENCODING 175
SWIDTH 354 0
DWIDTH 7 0
BBX 6 2 1 12
BITMAP
FC
FC
ENDCHAR
STARTCHAR degree
ENCODING 176
SWIDTH 506 0
DWIDTH 11 0
BBX 9 9 1 7
BITMAP
7E00
7F00
C100
C100
C180
C100
C100
7700
7E00
ENDCHAR
STARTCHAR plusminus
ENCODING 177
SWIDTH 597 0
DWIDTH 13 0
BBX 10 13 1 0
BITMAP
0C00
0C00
0C00
0C00
FFC0
FFC0
0C00
0C00
0C00
0C00
0000
FFC0
FFC0
ENDCHAR
STARTCHAR uni00B2
ENCODING 178
SWIDTH 412 0
DWIDTH 9 0
BBX 7 9 1 9
BITMAP
7C
FE
C6
06
7C
F0
C0
FE
FE
ENDCHAR
STARTCHAR uni00B3
ENCODING 179
SWIDTH 412 0
DWIDTH 9 0
BBX 7 9 1 9
BITMAP
30
FE
C6
06
3C
3E
86
FE
FC
ENDCHAR
STARTCHAR acute
ENCODING 180
SWIDTH 304 0
DWIDTH 6 0
BBX 4 3 1 13
BITMAP
30
60
C0
ENDCHAR
STARTCHAR uni00B5
ENCODING 181
SWIDTH 598 0
DWIDTH 13 0
BBX 10 15 1 -4
BITMAP
C0C0
C0C0
C0C0
C0C0
C0C0
C0C0
C0C0
E0C0
E0C0
FFC0
DEC0
C000
C000
C000
C000
ENDCHAR
STARTCHAR paragraph
ENCODING 182
SWIDTH 720 0
DWIDTH 15 0
BBX 13 16 1 0
BITMAP
3FF8
7FF8
FF98
FF98
FF98
FF98
FF98
FF98
FF98
7F98
0F98
0198
0198
0198
0198
0198
ENDCHAR
STARTCHAR periodcentered
ENCODING 183
SWIDTH 228 0
DWIDTH 5 0
BBX 2 3 1 4
BITMAP
C0
C0
C0
ENDCHAR
STARTCHAR cedilla
ENCODING 184
SWIDTH 327 0
DWIDTH 7 0
BBX 5 4 1 -4
BITMAP
60
38
88
F8
ENDCHAR
STARTCHAR uni00B9
ENCODING 185
SWIDTH 276 0
DWIDTH 6 0
BBX 5 9 0 9
BITMAP
18
78
F8
18
18
18
18
18
18
ENDCHAR
STARTCHAR ordmasculine
ENCODING 186
SWIDTH 502 0
DWIDTH 11 0
BBX 9 9 1 7
BITMAP
7E00
7F00
C100
C100
C180
C100
C100
7F00
7E00
ENDCHAR
STARTCHAR guillemotright
ENCODING 187
SWIDTH 465 0
DWIDTH 10 0
BBX 8 9 1 2
BITMAP
CC
6C
66
36
33
36
66
6C
CC
ENDCHAR
STARTCHAR onequarter
ENCODING 188
SWIDTH 782 0
DWIDTH 16 0
BBX 16 16 0 0
BITMAP
3830
7830
D860
1860
18C0
18C0
1980
198E
1B1E
031E
0636
0666
0CC6
0CFF
18FF
1806
ENDCHAR
STARTCHAR onehalf
ENCODING 189
SWIDTH 836 0
DWIDTH 18 0
BBX 17 16 0 0
BITMAP
383000
783000
D86000
186000
18C000
18C000
198000
19BF00
1B3F80
032180
060180
061F00
0C3E00
0C6000
187F80
187F80
ENDCHAR
STARTCHAR threequarters
ENCODING 190
SWIDTH 896 0
DWIDTH 19 0
BBX 17 16 1 0
BITMAP
7C0C00
FE1800
C61800
0E3000
3C3000
066000
866000
FEC300
7CC700
018F00
019B00
033300
036300
067F80
067F80
0C0300
ENDCHAR
STARTCHAR questiondown
ENCODING 191
SWIDTH 570 0
DWIDTH 12 0
BBX 10 16 1 -5
BITMAP
0600
0600
0600
0000
0000
0600
0E00
3C00
F800
C000
C000
C0C0
C0C0
C0C0
FFC0
3F00
ENDCHAR
STARTCHAR Agrave
ENCODING 192
SWIDTH 758 0
DWIDTH 16 0
BBX 16 20 0 0
BITMAP
0600
0300
0180
0000
03C0
03C0
07C0
0660
0660
0C70
0C30
1C30
1818
1818
3FFC
3FFC
300C
6006
6006
E007
ENDCHAR
STARTCHAR Aacute
ENCODING 193
SWIDTH 758 0
DWIDTH 16 0
BBX 16 20 0 0
BITMAP
0060
00C0
0180
0000
03C0
03C0
07C0
0660
0660
0C70
0C30
1C30
1818
1818
3FFC
3FFC
300C
6006
6006
E007
ENDCHAR
STARTCHAR Acircumflex
ENCODING 194
SWIDTH 758 0
DWIDTH 16 0
BBX 16 20 0 0
BITMAP
0180
03C0
0660
0000
03C0
03C0
07C0
0660
0660
0C70
0C30
1C30
1818
1818
3FFC
3FFC
300C
6006
6006
E007
ENDCHAR
STARTCHAR Atilde
ENCODING 195
SWIDTH 758 0
DWIDTH 16 0
BBX 16 20 0 0
BITMAP
0320
07E0
04C0
0000
03C0
03C0
07C0
0660
0660
0C70
0C30
1C30
1818
1818
3FFC
3FFC
300C
6006
6006
E007
ENDCHAR
STARTCHAR Adieresis
ENCODING 196
SWIDTH 758 0
DWIDTH 16 0
BBX 16 21 0 0
BITMAP
0660
0660
0660
0000
0000
03C0
03C0
07C0
0660
0660
0C70
0C30
1C30
1818
1818
3FFC
3FFC
300C
6006
6006
E007
ENDCHAR
STARTCHAR Aring
ENCODING 197
SWIDTH 758 0
DWIDTH 16 0
BBX 16 21 0 0
BITMAP
03C0
0240
0240
03C0
0000
03C0
03C0
07C0
0660
0660
0C70
0C30
1C30
1818
1818
3FFC
3FFC
300C
6006
6006
E007
ENDCHAR
STARTCHAR AE
ENCODING 198
SWIDTH 1129 0
DWIDTH 24 0
BBX 23 16 0 0
BITMAP
003FFE
007FFE
006C00
00EC00
01CC00
018C00
038C00
070FFC
060FFC
0E0C00
1C0C00
1FFC00
3FFC00
700C00
600FFE
C00FFE
ENDCHAR
STARTCHAR Ccedilla
ENCODING 199
SWIDTH 758 0
DWIDTH 16 0
BBX 14 20 1 -4
BITMAP
1FE0
3FF8
7038
601C
E00C
C00C
C000
C000
C000
C000
C00C
E00C
601C
7038
3FF8
1FE0
0300
01C0
04C0
07C0
ENDCHAR
STARTCHAR Egrave
ENCODING 200
SWIDTH 661 0
DWIDTH 14 0
BBX 11 20 2 0
BITMAP
3000
1800
0C00
0000
FFE0
FFE0
C000
C000
C000
C000
C000
FFC0
FFC0
C000
C000
C000
C000
C000
FFE0
FFE0
ENDCHAR
STARTCHAR Eacute
ENCODING 201
SWIDTH 661 0
DWIDTH 14 0
BBX 11 20 2 0
BITMAP
0300
0600
0C00
0000
FFE0
FFE0
C000
C000
C000
C000
C000
FFC0
FFC0
C000
C000
C000
C000
C000
FFE0
FFE0
ENDCHAR
STARTCHAR Ecircumflex
ENCODING 202
SWIDTH 661 0
DWIDTH 14 0
BBX 11 20 2 0
BITMAP
0E00
1E00
3300
0000
FFE0
FFE0
C000
C000
C000
C000
C000
FFC0
FFC0
C000
C000
C000
C000
C000
FFE0
FFE0
ENDCHAR
STARTCHAR Edieresis
ENCODING 203
SWIDTH 661 0
DWIDTH 14 0
BBX 11 21 2 0
BITMAP
3300
3300
3300
0000
0000
FFE0
FFE0
C000
C000
C000
C000
C000
FFC0
FFC0
C000
C000
C000
C000
C000
FFE0
FFE0
ENDCHAR
STARTCHAR Igrave
ENCODING 204
SWIDTH 250 0
DWIDTH 5 0
BBX 4 20 0 0
BITMAP
C0
60
70
00
30
30
30
30
30
30
30
30
30
30
30
30
30
30
30
30
ENDCHAR
STARTCHAR Iacute
ENCODING 205
SWIDTH 250 0
DWIDTH 5 0
BBX 4 20 2 0
BITMAP
70
60
C0
00
C0
C0
C0
C0
C0
C0
C0
C0
C0
C0
C0
C0
C0
C0
C0
C0
ENDCHAR
STARTCHAR Icircumflex
ENCODING 206
SWIDTH 250 0
DWIDTH 5 0
BBX 6 20 0 0
BITMAP
70
D8
CC
00
30
30
30
30
30
30
30
30
30
30
30
30
30
30
30
30
ENDCHAR
STARTCHAR Idieresis
ENCODING 207
SWIDTH 250 0
DWIDTH 5 0
BBX 5 21 0 0
BITMAP
D8
D8
D8
00
00
30
30
30
30
30
30
30
30
30
30
30
30
30
30
30
30
ENDCHAR
STARTCHAR Eth
ENCODING 208
SWIDTH 791 0
DWIDTH 17 0
BBX 14 16 1 0
BITMAP
7FE0
7FF8
601C
600C
600C
600C
600C
FE0C
FE0C
600C
600C
600C
600C
601C
7FF8
7FE0
ENDCHAR
STARTCHAR Ntilde
ENCODING 209
SWIDTH 805 0
DWIDTH 17 0
BBX 13 20 2 0
BITMAP
0EC0
0F80
0900
0000
E018
F018
F018
F818
D818
CC18
CE18
C618
C318
C398
C198
C1D8
C0D8
C078
C078
C038
ENDCHAR
STARTCHAR Ograve
ENCODING 210
SWIDTH 803 0
DWIDTH 17 0
BBX 15 20 1 0
BITMAP
0600
0700
0300
0000
1FF0
3FF8
701C
600C
E00E
C00E
C00E
C006
C006
C00E
C00E
E00E
600C
701C
3FF8
1FF0
ENDCHAR
STARTCHAR Oacute
ENCODING 211
SWIDTH 803 0
DWIDTH 17 0
BBX 15 20 1 0
BITMAP
00C0
0180
0180
0000
1FF0
3FF8
701C
600C
E00E
C00E
C00E
C006
C006
C00E
C00E
E00E
600C
701C
3FF8
1FF0
ENDCHAR
STARTCHAR Ocircumflex
ENCODING 212
SWIDTH 803 0
DWIDTH 17 0
BBX 15 20 1 0
BITMAP
0380
06C0
0CC0
0000
1FF0
3FF8
701C
600C
E00E
C00E
C00E
C006
C006
C00E
C00E
E00E
600C
701C
3FF8
1FF0
ENDCHAR
STARTCHAR Otilde
ENCODING 213
SWIDTH 803 0
DWIDTH 17 0
BBX 15 20 1 0
BITMAP
0740
0FC0
0C80
0000
1FF0
3FF8
701C
600C
E00E
C00E
C00E
C006
C006
C00E
C00E
E00E
600C
701C
3FF8
1FF0
ENDCHAR
STARTCHAR Odieresis
ENCODING 214
SWIDTH 803 0
DWIDTH 17 0
BBX 15 20 1 0
BITMAP
06C0
06C0
06C0
0000
1FF0
3FF8
701C
600C
E00E
C00E
C00E
C006
C006
C00E
C00E
E00E
600C
701C
3FF8
1FF0
ENDCHAR
STARTCHAR multiply
ENCODING 215
SWIDTH 597 0
DWIDTH 13 0
BBX 9 9 2 2
BITMAP
C180
E300
7600
3C00
1C00
3E00
6700
C380
8100
ENDCHAR
STARTCHAR Oslash
ENCODING 216
SWIDTH 804 0
DWIDTH 17 0
BBX 15 18 1 -1
BITMAP
000E
1FFC
3FF8
703C
603C
E06E
C0CE
C1C6
C186
C306
C706
C60E
EC0E
780C
781C
3FF8
7FF0
C000
ENDCHAR
STARTCHAR Ugrave
ENCODING 217
SWIDTH 781 0
DWIDTH 16 0
BBX 14 20 1 0
BITMAP
0C00
0600
0300
0000
E00C
E00C
E00C
E00C
E00C
E00C
E00C
E00C
E00C
E00C
E00C
E00C
601C
7018
3FF8
1FE0
ENDCHAR
STARTCHAR Uacute
ENCODING 218
SWIDTH 781 0
DWIDTH 16 0
BBX 14 20 1 0
BITMAP
00C0
0180
0300
0000
E00C
E00C
E00C
E00C
E00C
E00C
E00C
E00C
E00C
E00C
E00C
E00C
601C
7018
3FF8
1FE0
ENDCHAR
STARTCHAR Ucircumflex
ENCODING 219
SWIDTH 781 0
DWIDTH 16 0
BBX 14 20 1 0
BITMAP
0380
0780
0CC0
0000
E00C
E00C
E00C
E00C
E00C
E00C
E00C
E00C
E00C
E00C
E00C
E00C
601C
7018
3FF8
1FE0
ENDCHAR
STARTCHAR Udieresis
ENCODING 220
SWIDTH 781 0
DWIDTH 16 0
BBX 14 21 1 0
BITMAP
0CC0
0CC0
0CC0
0000
0000
E00C
E00C
E00C
E00C
E00C
E00C
E00C
E00C
E00C
E00C
E00C
E00C
601C
7018
3FF8
1FE0
ENDCHAR
STARTCHAR Yacute
ENCODING 221
SWIDTH 712 0
DWIDTH 15 0
BBX 15 20 0 0
BITMAP
00C0
01C0
0180
0000
E00E
600C
3018
3838
1830
1C70
0C60
06C0
07C0
0380
0380
0380
0380
0380
0380
0380
ENDCHAR
STARTCHAR Thorn
ENCODING 222
SWIDTH 725 0
DWIDTH 15 0
BBX 12 16 2 0
BITMAP
C000
C000
C000
FFC0
FFF0
C070
C030
C030
C030
C030
C070
FFF0
FFC0
C000
C000
C000
ENDCHAR
STARTCHAR germandbls
ENCODING 223
SWIDTH 641 0
DWIDTH 13 0
BBX 11 16 1 0
BITMAP
3F80
7FC0
60E0
E060
C060
C060
C0C0
CF80
CFC0
C060
C060
C060
C060
C060
CFE0
CFC0
ENDCHAR
STARTCHAR agrave
ENCODING 224
SWIDTH 577 0
DWIDTH 12 0
BBX 10 16 1 0
BITMAP
3000
1800
0C00
0000
0000
3F00
7F80
C0C0
00C0
3FC0
7FC0
C0C0
C0C0
C1C0
FFC0
7EC0
ENDCHAR
STARTCHAR aacute
ENCODING 225
SWIDTH 577 0
DWIDTH 12 0
BBX 10 16 1 0
BITMAP
0300
0600
0C00
0000
0000
3F00
7F80
C0C0
00C0
3FC0
7FC0
C0C0
C0C0
C1C0
FFC0
7EC0
ENDCHAR
STARTCHAR acircumflex
ENCODING 226
SWIDTH 577 0
DWIDTH 12 0
BBX 10 16 1 0
BITMAP
0C00
1E00
3300
0000
0000
3F00
7F80
C0C0
00C0
3FC0
7FC0
C0C0
C0C0
C1C0
FFC0
7EC0
ENDCHAR
STARTCHAR atilde
ENCODING 227
SWIDTH 577 0
DWIDTH 12 0
BBX 10 15 1 0
BITMAP
1900
3F00
2200
0000
3F00
7F80
C0C0
00C0
3FC0
7FC0
C0C0
C0C0
C1C0
FFC0
7EC0
ENDCHAR
STARTCHAR adieresis
ENCODING 228
SWIDTH 577 0
DWIDTH 12 0
BBX 10 16 1 0
BITMAP
3300
3300
3300
0000
0000
3F00
7F80
C0C0
00C0
3FC0
7FC0
C0C0
C0C0
C1C0
FFC0
7EC0
ENDCHAR
STARTCHAR aring
ENCODING 229
SWIDTH 577 0
DWIDTH 12 0
BBX 10 16 1 0
BITMAP
1E00
1200
1200
1E00
0000
3F00
7F80
C0C0
00C0
3FC0
7FC0
C0C0
C0C0
C1C0
FFC0
7EC0
ENDCHAR
STARTCHAR ae
ENCODING 230
SWIDTH 951 0
DWIDTH 20 0
BBX 18 11 1 0
BITMAP
3F3F00
7FFF80
C0C0C0
00C0C0
3FFFC0
7FFFC0
C0C000
C0C0C0
C1C0C0
FFFF80
7E3F00
ENDCHAR
STARTCHAR ccedilla
ENCODING 231
SWIDTH 590 0
DWIDTH 12 0
BBX 10 15 1 -4
BITMAP
3F80
7FC0
E0C0
C0C0
C000
C000
C000
C0C0
E0C0
7FC0
3F80
0C00
0700
1300
1F00
ENDCHAR
STARTCHAR egrave
ENCODING 232
SWIDTH 594 0
DWIDTH 12 0
BBX 10 16 1 0
BITMAP
3800
1800
0C00
0000
0000
3F00
7FC0
C0C0
C0C0
FFC0
FFC0
C000
C0C0
E0C0
7FC0
3F80
ENDCHAR
STARTCHAR eacute
ENCODING 233
SWIDTH 594 0
DWIDTH 12 0
BBX 10 16 1 0
BITMAP
0300
0600
0E00
0000
0000
3F00
7FC0
C0C0
C0C0
FFC0
FFC0
C000
C0C0
E0C0
7FC0
3F80
ENDCHAR
STARTCHAR ecircumflex
ENCODING 234
SWIDTH 594 0
DWIDTH 12 0
BBX 10 16 1 0
BITMAP
0E00
1E00
3300
0000
0000
3F00
7FC0
C0C0
C0C0
FFC0
FFC0
C000
C0C0
E0C0
7FC0
3F80
ENDCHAR
STARTCHAR edieresis
ENCODING 235
SWIDTH 594 0
DWIDTH 12 0
BBX 10 16 1 0
BITMAP
3300
3300
3300
0000
0000
3F00
7FC0
C0C0
C0C0
FFC0
FFC0
C000
C0C0
E0C0
7FC0
3F80
ENDCHAR
STARTCHAR igrave
ENCODING 236
SWIDTH 228 0
DWIDTH 5 0
BBX 4 16 -1 0
BITMAP
E0
60
30
00
00
30
30
30
30
30
30
30
30
30
30
30
ENDCHAR
STARTCHAR iacute
ENCODING 237
SWIDTH 228 0
DWIDTH 5 0
BBX 4 16 1 0
BITMAP
30
60
60
00
00
C0
C0
C0
C0
C0
C0
C0
C0
C0
C0
C0
ENDCHAR
STARTCHAR icircumflex
ENCODING 238
SWIDTH 228 0
DWIDTH 5 0
BBX 6 16 -1 0
BITMAP
38
6C
CC
00
00
30
30
30
30
30
30
30
30
30
30
30
ENDCHAR
STARTCHAR idieresis
ENCODING 239
SWIDTH 228 0
DWIDTH 5 0
BBX 5 16 0 0
BITMAP
D8
D8
D8
00
00
60
60
60
60
60
60
60
60
60
60
60
ENDCHAR
STARTCHAR eth
ENCODING 240
SWIDTH 616 0
DWIDTH 13 0
BBX 11 16 1 0
BITMAP
3EC0
3FC0
0780
0CC0
00C0
3E60
7FE0
E0E0
C060
C060
C060
C060
C060
E0C0
7FC0
3F80
ENDCHAR
STARTCHAR ntilde
ENCODING 241
SWIDTH 594 0
DWIDTH 12 0
BBX 10 15 1 0
BITMAP
1D00
3F00
3200
0000
DF80
DFC0
E0C0
C0C0
C0C0
C0C0
C0C0
C0C0
C0C0
C0C0
C0C0
ENDCHAR
STARTCHAR ograve
ENCODING 242
SWIDTH 612 0
DWIDTH 13 0
BBX 11 16 1 0
BITMAP
3800
1800
0C00
0000
0000
3F80
7FC0
E0C0
C060
C060
C060
C060
C060
E0C0
7FC0
3F80
ENDCHAR
STARTCHAR oacute
ENCODING 243
SWIDTH 612 0
DWIDTH 13 0
BBX 11 16 1 0
BITMAP
0300
0600
0600
0000
0000
3F80
7FC0
E0C0
C060
C060
C060
C060
C060
E0C0
7FC0
3F80
ENDCHAR
STARTCHAR ocircumflex
ENCODING 244
SWIDTH 612 0
DWIDTH 13 0
BBX 11 16 1 0
BITMAP
0E00
1B00
3300
0000
0000
3F80
7FC0
E0C0
C060
C060
C060
C060
C060
E0C0
7FC0
3F80
ENDCHAR
STARTCHAR otilde
ENCODING 245
SWIDTH 612 0
DWIDTH 13 0
BBX 11 15 1 0
BITMAP
1D00
3F00
3200
0000
3F80
7FC0
E0C0
C060
C060
C060
C060
C060
E0C0
7FC0
3F80
ENDCHAR
STARTCHAR odieresis
ENCODING 246
SWIDTH 612 0
DWIDTH 13 0
BBX 11 16 1 0
BITMAP
1B00
1B00
1B00
0000
0000
3F80
7FC0
E0C0
C060
C060
C060
C060
C060
E0C0
7FC0
3F80
ENDCHAR
STARTCHAR divide
ENCODING 247
SWIDTH 597 0
DWIDTH 13 0
BBX 10 11 1 1
BITMAP
0C00
0E00
0C00
0000
FFC0
FFC0
0000
0000
0C00
0E00
0C00
ENDCHAR
STARTCHAR oslash
ENCODING 248
SWIDTH 612 0
DWIDTH 13 0
BBX 11 13 1 -1
BITMAP
0060
3FC0
7FC0
E1C0
C360
C660
CC60
CC60
D860
F0C0
7FC0
7F80
C000
ENDCHAR
STARTCHAR ugrave
ENCODING 249
SWIDTH 588 0
DWIDTH 12 0
BBX 10 16 1 0
BITMAP
3000
1800
0C00
0000
0000
C0C0
C0C0
C0C0
C0C0
C0C0
C0C0
C0C0
C0C0
E1C0
7FC0
3EC0
ENDCHAR
STARTCHAR uacute
ENCODING 250
SWIDTH 588 0
DWIDTH 12 0
BBX 10 16 1 0
BITMAP
0300
0600
0C00
0000
0000
C0C0
C0C0
C0C0
C0C0
C0C0
C0C0
C0C0
C0C0
E1C0
7FC0
3EC0
ENDCHAR
STARTCHAR ucircumflex
ENCODING 251
SWIDTH 588 0
DWIDTH 12 0
BBX 10 16 1 0
BITMAP
0E00
1E00
3300
0000
0000
C0C0
C0C0
C0C0
C0C0
C0C0
C0C0
C0C0
C0C0
E1C0
7FC0
3EC0
ENDCHAR
STARTCHAR udieresis
ENCODING 252
SWIDTH 588 0
DWIDTH 12 0
BBX 10 16 1 0
BITMAP
3300
3300
3300
0000
0000
C0C0
C0C0
C0C0
C0C0
C0C0
C0C0
C0C0
C0C0
E1C0
7FC0
3EC0
ENDCHAR
STARTCHAR yacute
ENCODING 253
SWIDTH 546 0
DWIDTH 11 0
BBX 11 20 0 -4
BITMAP
0180
0300
0600
0000
0000
E060
6060
60C0
30C0
3180
3980
1980
1B00
0F00
0E00
0E00
0600
0C00
7C00
7800
ENDCHAR
STARTCHAR thorn
ENCODING 254
SWIDTH 621 0
DWIDTH 13 0
BBX 11 20 1 -4
BITMAP
C000
C000
C000
C000
C000
DF80
DFC0
E0E0
C060
C060
C060
C060
C060
E0E0
DFC0
DF80
C000
C000
C000
C000
ENDCHAR
STARTCHAR ydieresis
ENCODING 255
SWIDTH 546 0
DWIDTH 11 0
BBX 11 20 0 -4
BITMAP
1980
1980
1980
0000
0000
E060
6060
60C0
30C0
3180
3980
1980
1B00
0F00
0E00
0E00
0600
0C00
7C00
7800
ENDCHAR
STARTCHAR Amacron
ENCODING 256
SWIDTH 758 0
DWIDTH 16 0
BBX 16 20 0 0
BITMAP
07E0
07E0
0000
0000
03C0
03C0
07C0
0660
0660
0C70
0C30
1C30
1818
1818
3FFC
3FFC
300C
6006
6006
E007
ENDCHAR
STARTCHAR amacron
ENCODING 257
SWIDTH 577 0
DWIDTH 12 0
BBX 10 14 1 0
BITMAP
3F00
3F00
0000
3F00
7F80
C0C0
00C0
3FC0
7FC0
C0C0
C0C0
C1C0
FFC0
7EC0
ENDCHAR
STARTCHAR Abreve
ENCODING 258
SWIDTH 758 0
DWIDTH 16 0
BBX 16 21 0 0
BITMAP
0660
0660
07C0
0000
0000
03C0
03C0
07C0
0660
0660
0C70
0C30
1C30
1818
1818
3FFC
3FFC
300C
6006
6006
E007
ENDCHAR
STARTCHAR abreve
ENCODING 259
SWIDTH 577 0
DWIDTH 12 0
BBX 10 15 1 0
BITMAP
3300
3300
1E00
0000
3F00
7F80
C0C0
00C0
3FC0
7FC0
C0C0
C0C0
C1C0
FFC0
7EC0
ENDCHAR
STARTCHAR Aogonek
ENCODING 260
SWIDTH 758 0
DWIDTH 16 0
BBX 16 20 0 -4
BITMAP
03C0
03C0
07C0
0660
0660
0C70
0C30
1C30
1818
1818
3FFC
3FFC
300C
6006
6006
E007
0006
0004
0007
0007
ENDCHAR
STARTCHAR aogonek
ENCODING 261
SWIDTH 577 0
DWIDTH 12 0
BBX 10 15 1 -4
BITMAP
3F00
7F80
C0C0
00C0
3FC0
7FC0
C0C0
C0C0
C1C0
FFC0
7EC0
0080
0180
01C0
01C0
ENDCHAR
STARTCHAR Cacute
ENCODING 262
SWIDTH 758 0
DWIDTH 16 0
BBX 14 20 1 0
BITMAP
00C0
0180
0300
0000
1FE0
3FF8
7038
601C
E00C
C00C
C000
C000
C000
C000
C00C
E00C
601C
7038
3FF8
1FE0
ENDCHAR
STARTCHAR cacute
ENCODING 263
SWIDTH 590 0
DWIDTH 12 0
BBX 10 16 1 0
BITMAP
0300
0600
0C00
0000
0000
3F80
7FC0
E0C0
C0C0
C000
C000
C000
C0C0
E0C0
7FC0
3F80
ENDCHAR
STARTCHAR Ccircumflex
ENCODING 264
SWIDTH 758 0
DWIDTH 16 0
BBX 14 20 1 0
BITMAP
0380
0780
0CC0
0000
1FE0
3FF8
7038
601C
E00C
C00C
C000
C000
C000
C000
C00C
E00C
601C
7038
3FF8
1FE0
ENDCHAR
STARTCHAR ccircumflex
ENCODING 265
SWIDTH 590 0
DWIDTH 12 0
BBX 10 16 1 0
BITMAP
0E00
1E00
3300
0000
0000
3F80
7FC0
E0C0
C0C0
C000
C000
C000
C0C0
E0C0
7FC0
3F80
ENDCHAR
STARTCHAR Cdotaccent
ENCODING 266
SWIDTH 758 0
DWIDTH 16 0
BBX 14 20 1 0
BITMAP
0300
0300
0300
0000
1FE0
3FF8
7038
601C
E00C
C00C
C000
C000
C000
C000
C00C
E00C
601C
7038
3FF8
1FE0
ENDCHAR
STARTCHAR cdotaccent
ENCODING 267
SWIDTH 590 0
DWIDTH 12 0
BBX 10 16 1 0
BITMAP
0C00
0C00
0C00
0000
0000
3F80
7FC0
E0C0
C0C0
C000
C000
C000
C0C0
E0C0
7FC0
3F80
ENDCHAR
STARTCHAR Ccaron
ENCODING 268
SWIDTH 758 0
DWIDTH 16 0
BBX 14 20 1 0
BITMAP
0CC0
0780
0380
0000
1FE0
3FF8
7038
601C
E00C
C00C
C000
C000
C000
C000
C00C
E00C
601C
7038
3FF8
1FE0
ENDCHAR
STARTCHAR ccaron
ENCODING 269
SWIDTH 590 0
DWIDTH 12 0
BBX 10 16 1 0
BITMAP
3300
1A00
0E00
0000
0000
3F80
7FC0
E0C0
C0C0
C000
C000
C000
C0C0
E0C0
7FC0
3F80
ENDCHAR
STARTCHAR Dcaron
ENCODING 270
SWIDTH 767 0
DWIDTH 16 0
BBX 13 20 2 0
BITMAP
1980
0F00
0600
0000
FFC0
FFE0
C070
C038
C018
C018
C018
C018
C018
C018
C018
C018
C038
C070
FFE0
FFC0
ENDCHAR
STARTCHAR dcaron
ENCODING 271
SWIDTH 662 0
DWIDTH 14 0
BBX 14 16 1 0
BITMAP
006C
006C
006C
0068
0060
3F60
7F60
E0E0
C060
C060
C060
C060
C060
E0E0
7FE0
3F60
ENDCHAR
STARTCHAR Dcroat
ENCODING 272
SWIDTH 791 0
DWIDTH 17 0
BBX 14 16 1 0
BITMAP
7FE0
7FF8
601C
600C
600C
600C
600C
FE0C
FE0C
600C
600C
600C
600C
601C
7FF8
7FE0
ENDCHAR
STARTCHAR dcroat
ENCODING 273
SWIDTH 621 0
DWIDTH 13 0
BBX 12 16 1 0
BITMAP
0060
07F0
07F0
0060
0060
3F60
7F60
E0E0
C060
C060
C060
C060
C060
E0E0
7FE0
3F60
ENDCHAR
STARTCHAR Emacron
ENCODING 274
SWIDTH 661 0
DWIDTH 14 0
BBX 11 20 2 0
BITMAP
3F00
3F00
0000
0000
FFE0
FFE0
C000
C000
C000
C000
C000
FFC0
FFC0
C000
C000
C000
C000
C000
FFE0
FFE0
ENDCHAR
STARTCHAR emacron
ENCODING 275
SWIDTH 594 0
DWIDTH 12 0
BBX 10 14 1 0
BITMAP
1F00
1F00
0000
3F00
7FC0
C0C0
C0C0
FFC0
FFC0
C000
C0C0
E0C0
7FC0
3F80
ENDCHAR
STARTCHAR Ebreve
ENCODING 276
SWIDTH 661 0
DWIDTH 14 0
BBX 11 21 2 0
BITMAP
3300
3300
1F00
0000
0000
FFE0
FFE0
C000
C000
C000
C000
C000
FFC0
FFC0
C000
C000
C000
C000
C000
FFE0
FFE0
ENDCHAR
STARTCHAR ebreve
ENCODING 277
SWIDTH 594 0
DWIDTH 12 0
BBX 10 15 1 0
BITMAP
3100
1B00
1E00
0000
3F00
7FC0
C0C0
C0C0
FFC0
FFC0
C000
C0C0
E0C0
7FC0
3F80
ENDCHAR
STARTCHAR Edotaccent
ENCODING 278
SWIDTH 661 0
DWIDTH 14 0
BBX 11 21 2 0
BITMAP
0C00
0C00
0C00
0000
0000
FFE0
FFE0
C000
C000
C000
C000
C000
FFC0
FFC0
C000
C000
C000
C000
C000
FFE0
FFE0
ENDCHAR
STARTCHAR edotaccent
ENCODING 279
SWIDTH 594 0
DWIDTH 12 0
BBX 10 16 1 0
BITMAP
0C00
0C00
0C00
0000
0000
3F00
7FC0
C0C0
C0C0
FFC0
FFC0
C000
C0C0
E0C0
7FC0
3F80
ENDCHAR
STARTCHAR Eogonek
ENCODING 280
SWIDTH 661 0
DWIDTH 14 0
BBX 11 20 2 -4
BITMAP
FFE0
FFE0
C000
C000
C000
C000
C000
FFC0
FFC0
C000
C000
C000
C000
C000
FFE0
FFE0
0040
00C0
00E0
00E0
ENDCHAR
STARTCHAR eogonek
ENCODING 281
SWIDTH 594 0
DWIDTH 12 0
BBX 10 15 1 -4
BITMAP
3F00
7FC0
C0C0
C0C0
C0C0
FFC0
C000
C0C0
E0C0
7FC0
3F80
0300
0200
0380
0380
ENDCHAR
STARTCHAR Ecaron
ENCODING 282
SWIDTH 661 0
DWIDTH 14 0
BBX 11 20 2 0
BITMAP
3300
1E00
0C00
0000
FFE0
FFE0
C000
C000
C000
C000
C000
FFC0
FFC0
C000
C000
C000
C000
C000
FFE0
FFE0
ENDCHAR
STARTCHAR ecaron
ENCODING 283
SWIDTH 594 0
DWIDTH 12 0
BBX 10 16 1 0
BITMAP
3300
1B00
0E00
0000
0000
3F00
7FC0
C0C0
C0C0
FFC0
FFC0
C000
C0C0
E0C0
7FC0
3F80
ENDCHAR
STARTCHAR Gcircumflex
ENCODING 284
SWIDTH 782 0
DWIDTH 16 0
BBX 14 20 1 0
BITMAP
0380
06C0
0CC0
0000
1FE0
3FF8
701C
600C
E00C
C000
C000
C1FC
C1FC
C00C
C00C
E00C
600C
701C
3FF8
1FF0
ENDCHAR
STARTCHAR gcircumflex
ENCODING 285
SWIDTH 615 0
DWIDTH 13 0
BBX 11 20 1 -4
BITMAP
0E00
1A00
3300
0000
0000
3E60
7F60
E0E0
C0E0
C060
C060
C060
C0E0
E0E0
7FE0
3EE0
00E0
E0C0
7FC0
3F80
ENDCHAR
STARTCHAR Gbreve
ENCODING 286
SWIDTH 782 0
DWIDTH 16 0
BBX 14 20 1 0
BITMAP
0440
06C0
07C0
0000
1FE0
3FF8
701C
600C
E00C
C000
C000
C1FC
C1FC
C00C
C00C
E00C
600C
701C
3FF8
1FF0
ENDCHAR
STARTCHAR gbreve
ENCODING 287
SWIDTH 615 0
DWIDTH 13 0
BBX 11 19 1 -4
BITMAP
3100
1B00
1E00
0000
3E60
7F60
E0E0
C0E0
C060
C060
C060
C0E0
E0E0
7FE0
3EE0
00E0
E0C0
7FC0
3F80
ENDCHAR
STARTCHAR Gdotaccent
ENCODING 288
SWIDTH 782 0
DWIDTH 16 0
BBX 14 20 1 0
BITMAP
0300
0300
0300
0000
1FE0
3FF8
701C
600C
E00C
C000
C000
C1FC
C1FC
C00C
C00C
E00C
600C
701C
3FF8
1FF0
ENDCHAR
STARTCHAR gdotaccent
ENCODING 289
SWIDTH 615 0
DWIDTH 13 0
BBX 11 20 1 -4
BITMAP
0C00
0C00
0C00
0000
0000
3E60
7F60
E0E0
C0E0
C060
C060
C060
C0E0
E0E0
7FE0
3EE0
00E0
E0C0
7FC0
3F80
ENDCHAR
STARTCHAR uni0122
ENCODING 290
SWIDTH 782 0
DWIDTH 16 0
BBX 14 21 1 -5
BITMAP
1FE0
3FF8
701C
600C
E00C
C000
C000
C1FC
C1FC
C00C
C00C
E00C
600C
701C
3FF8
1FF0
0000
0380
0380
0100
0300
ENDCHAR
STARTCHAR uni0123
ENCODING 291
SWIDTH 615 0
DWIDTH 13 0
BBX 11 19 1 -4
BITMAP
0400
0C00
0C00
0000
3E60
7F60
E0E0
C0E0
C060
C060
C060
C0E0
E0E0
7FE0
3EE0
00E0
E0C0
7FC0
3F80
ENDCHAR
STARTCHAR Hcircumflex
ENCODING 292
SWIDTH 782 0
DWIDTH 16 0
BBX 13 20 2 0
BITMAP
0700
0F00
1980
0000
C018
C018
C018
C018
C018
C018
C018
FFF8
FFF8
C018
C018
C018
C018
C018
C018
C018
ENDCHAR
STARTCHAR hcircumflex
ENCODING 293
SWIDTH 594 0
DWIDTH 12 0
BBX 12 20 -1 0
BITMAP
3800
6C00
CC00
0000
3000
3000
3000
3000
3000
37E0
37F0
3830
3030
3030
3030
3030
3030
3030
3030
3030
ENDCHAR
STARTCHAR Hbar
ENCODING 294
SWIDTH 817 0
DWIDTH 17 0
BBX 15 16 1 0
BITMAP
600C
600C
FFFE
FFFE
600C
600C
600C
7FFC
7FFC
600C
600C
600C
600C
600C
600C
600C
ENDCHAR
STARTCHAR hbar
ENCODING 295
SWIDTH 594 0
DWIDTH 12 0
BBX 11 16 0 0
BITMAP
6000
FE00
FE00
6000
6000
6FC0
6FE0
7060
6060
6060
6060
6060
6060
6060
6060
6060
ENDCHAR
STARTCHAR Itilde
ENCODING 296
SWIDTH 250 0
DWIDTH 5 0
BBX 6 20 0 0
BITMAP
EC
F8
90
00
30
30
30
30
30
30
30
30
30
30
30
30
30
30
30
30
ENDCHAR
STARTCHAR itilde
ENCODING 297
SWIDTH 228 0
DWIDTH 5 0
BBX 6 15 -1 0
BITMAP
74
FC
C8
00
30
30
30
30
30
30
30
30
30
30
30
ENDCHAR
STARTCHAR Imacron
ENCODING 298
SWIDTH 250 0
DWIDTH 5 0
BBX 5 20 0 0
BITMAP
F8
F8
00
00
30
30
30
30
30
30
30
30
30
30
30
30
30
30
30
30
ENDCHAR
STARTCHAR imacron
ENCODING 299
SWIDTH 228 0
DWIDTH 5 0
BBX 5 15 0 0
BITMAP
F8
F8
00
00
60
60
60
60
60
60
60
60
60
60
60
ENDCHAR
STARTCHAR Ibreve
ENCODING 300
SWIDTH 250 0
DWIDTH 5 0
BBX 6 21 0 0
BITMAP
8C
88
F8
00
00
30
30
30
30
30
30
30
30
30
30
30
30
30
30
30
30
ENDCHAR
STARTCHAR ibreve
ENCODING 301
SWIDTH 228 0
DWIDTH 5 0
BBX 6 16 -1 0
BITMAP
C4
C4
7C
00
00
30
30
30
30
30
30
30
30
30
30
30
ENDCHAR
STARTCHAR Iogonek
ENCODING 302
SWIDTH 250 0
DWIDTH 5 0
BBX 3 20 1 -4
BITMAP
60
60
60
60
60
60
60
60
60
60
60
60
60
60
60
60
C0
80
E0
E0
ENDCHAR
STARTCHAR iogonek
ENCODING 303
SWIDTH 228 0
DWIDTH 5 0
BBX 4 20 0 -4
BITMAP
60
60
60
00
00
60
60
60
60
60
60
60
60
60
60
60
60
40
F0
70
ENDCHAR
STARTCHAR Idotaccent
ENCODING 304
SWIDTH 250 0
DWIDTH 5 0
BBX 2 21 2 0
BITMAP
C0
C0
C0
00
00
C0
C0
C0
C0
C0
C0
C0
C0
C0
C0
C0
C0
C0
C0
C0
C0
ENDCHAR
STARTCHAR dotlessi
ENCODING 305
SWIDTH 228 0
DWIDTH 5 0
BBX 2 11 1 0
BITMAP
C0
C0
C0
C0
C0
C0
C0
C0
C0
C0
C0
ENDCHAR
STARTCHAR IJ
ENCODING 306
SWIDTH 895 0
DWIDTH 19 0
BBX 15 16 2 0
BITMAP
C006
C006
C006
C006
C006
C006
C006
C006
C006
C006
CC06
CC06
CC06
CE0E
C7FC
C3F8
ENDCHAR
STARTCHAR ij
ENCODING 307
SWIDTH 456 0
DWIDTH 10 0
BBX 7 20 1 -4
BITMAP
C6
C6
C6
00
00
C6
C6
C6
C6
C6
C6
C6
C6
C6
C6
C6
06
06
1E
1E
ENDCHAR
STARTCHAR Jcircumflex
ENCODING 308
SWIDTH 643 0
DWIDTH 14 0
BBX 13 20 1 0
BITMAP
0060
00F0
0198
0000
0060
0060
0060
0060
0060
0060
0060
0060
0060
0060
C060
C060
C060
C0E0
FFC0
3F80
ENDCHAR
STARTCHAR jcircumflex
ENCODING 309
SWIDTH 228 0
DWIDTH 5 0
BBX 6 20 -1 -4
BITMAP
38
6C
CC
00
00
30
30
30
30
30
30
30
30
30
30
30
30
30
70
70
ENDCHAR
STARTCHAR uni0136
ENCODING 310
SWIDTH 701 0
DWIDTH 15 0
BBX 12 21 2 -5
BITMAP
C070
C0E0
C1C0
C180
C300
C600
CE00
FC00
FC00
CE00
C700
C380
C1C0
C0E0
C060
C030
0000
0000
0600
0600
0400
ENDCHAR
STARTCHAR uni0137
ENCODING 311
SWIDTH 519 0
DWIDTH 11 0
BBX 10 21 1 -5
BITMAP
C000
C000
C000
C000
C000
C180
C300
C600
CC00
FC00
F800
CC00
C600
C700
C380
C1C0
0000
0000
0C00
0C00
0800
ENDCHAR
STARTCHAR kgreenlandic
ENCODING 312
SWIDTH 515 0
DWIDTH 11 0
BBX 9 11 1 0
BITMAP
C180
C300
C600
CC00
F800
F800
CC00
C600
C700
C380
C180
ENDCHAR
STARTCHAR Lacute
ENCODING 313
SWIDTH 589 0
DWIDTH 12 0
BBX 10 20 2 0
BITMAP
7000
6000
C000
0000
C000
C000
C000
C000
C000
C000
C000
C000
C000
C000
C000
C000
C000
C000
FFC0
FFC0
ENDCHAR
STARTCHAR lacute
ENCODING 314
SWIDTH 228 0
DWIDTH 5 0
BBX 4 20 1 0
BITMAP
30
60
60
00
C0
C0
C0
C0
C0
C0
C0
C0
C0
C0
C0
C0
C0
C0
C0
C0
ENDCHAR
STARTCHAR uni013B
ENCODING 315
SWIDTH 589 0
DWIDTH 12 0
BBX 10 21 2 -5
BITMAP
C000
C000
C000
C000
C000
C000
C000
C000
C000
C000
C000
C000
C000
C000
FFC0
FFC0
0000
0000
0C00
0C00
0800
ENDCHAR
STARTCHAR uni013C
ENCODING 316
SWIDTH 228 0
DWIDTH 5 0
BBX 2 21 1 -5
BITMAP
C0
C0
C0
C0
C0
C0
C0
C0
C0
C0
C0
C0
C0
C0
C0
C0
00
00
C0
C0
C0
ENDCHAR
STARTCHAR Lcaron
ENCODING 317
SWIDTH 589 0
DWIDTH 12 0
BBX 10 16 2 0
BITMAP
CC00
CC00
CC00
C800
C000
C000
C000
C000
C000
C000
C000
C000
C000
C000
FFC0
FFC0
ENDCHAR
STARTCHAR lcaron
ENCODING 318
SWIDTH 257 0
DWIDTH 5 0
BBX 6 16 1 0
BITMAP
CC
C8
C8
D8
C0
C0
C0
C0
C0
C0
C0
C0
C0
C0
C0
C0
ENDCHAR
STARTCHAR Ldot
ENCODING 319
SWIDTH 589 0
DWIDTH 12 0
BBX 10 16 2 0
BITMAP
C000
C000
C000
C000
C000
C000
C300
C300
C300
C000
C000
C000
C000
C000
FFC0
FFC0
ENDCHAR
STARTCHAR ldot
ENCODING 320
SWIDTH 285 0
DWIDTH 6 0
BBX 5 16 1 0
BITMAP
C0
C0
C0
C0
C0
C0
D8
D8
D8
C0
C0
C0
C0
C0
C0
C0
ENDCHAR
STARTCHAR Lslash
ENCODING 321
SWIDTH 613 0
DWIDTH 13 0
BBX 11 16 1 0
BITMAP
6000
6000
6000
6000
6000
6200
6E00
7C00
F000
E000
E000
6000
6000
6000
7FE0
7FE0
ENDCHAR
STARTCHAR lslash
ENCODING 322
SWIDTH 290 0
DWIDTH 6 0
BBX 4 16 1 0
BITMAP
60
60
60
60
60
60
60
70
F0
E0
60
60
60
60
60
60
ENDCHAR
STARTCHAR Nacute
ENCODING 323
SWIDTH 805 0
DWIDTH 17 0
BBX 13 20 2 0
BITMAP
0180
0380
0300
0000
E018
F018
F018
F818
D818
CC18
CE18
C618
C318
C398
C198
C1D8
C0D8
C078
C078
C038
ENDCHAR
STARTCHAR nacute
ENCODING 324
SWIDTH 594 0
DWIDTH 12 0
BBX 10 16 1 0
BITMAP
0300
0600
0E00
0000
0000
DF80
DFC0
E0C0
C0C0
C0C0
C0C0
C0C0
C0C0
C0C0
C0C0
C0C0
ENDCHAR
STARTCHAR uni0145
ENCODING 325
SWIDTH 805 0
DWIDTH 17 0
BBX 13 21 2 -5
BITMAP
E018
F018
F018
F818
D818
CC18
CE18
C618
C318
C398
C198
C1D8
C0D8
C078
C078
C038
0000
0000
0600
0600
0600
ENDCHAR
STARTCHAR uni0146
ENCODING 326
SWIDTH 594 0
DWIDTH 12 0
BBX 10 16 1 -5
BITMAP
DF80
DFC0
E0C0
C0C0
C0C0
C0C0
C0C0
C0C0
C0C0
C0C0
C0C0
0000
0000
0C00
0C00
0C00
ENDCHAR
STARTCHAR Ncaron
ENCODING 327
SWIDTH 805 0
DWIDTH 17 0
BBX 13 20 2 0
BITMAP
0CC0
0D80
0700
0000
E018
F018
F018
F818
D818
CC18
CE18
C618
C318
C398
C198
C1D8
C0D8
C078
C078
C038
ENDCHAR
STARTCHAR ncaron
ENCODING 328
SWIDTH 594 0
DWIDTH 12 0
BBX 10 16 1 0
BITMAP
3300
1B00
0E00
0000
0000
DF80
DFC0
E0C0
C0C0
C0C0
C0C0
C0C0
C0C0
C0C0
C0C0
C0C0
ENDCHAR
STARTCHAR Eng
ENCODING 330
SWIDTH 805 0
DWIDTH 17 0
BBX 13 20 2 -4
BITMAP
E018
F018
F018
D818
DC18
CC18
C618
C718
C398
C198
C1D8
C0F8
C078
C038
C038
C018
0018
0018
00F8
00F0
ENDCHAR
STARTCHAR eng
ENCODING 331
SWIDTH 594 0
DWIDTH 12 0
BBX 10 15 1 -4
BITMAP
DF80
DFC0
E0C0
C0C0
C0C0
C0C0
C0C0
C0C0
C0C0
C0C0
C0C0
00C0
00C0
03C0
0380
ENDCHAR
STARTCHAR Omacron
ENCODING 332
SWIDTH 803 0
DWIDTH 17 0
BBX 15 19 1 0
BITMAP
07C0
07C0
0000
1FF0
3FF8
701C
600C
E00E
C00E
C00E
C006
C006
C00E
C00E
E00E
600C
701C
3FF8
1FF0
ENDCHAR
STARTCHAR omacron
ENCODING 333
SWIDTH 612 0
DWIDTH 13 0
BBX 11 14 1 0
BITMAP
1F00
1F00
0000
3F80
7FC0
E0C0
C060
C060
C060
C060
C060
E0C0
7FC0
3F80
ENDCHAR
STARTCHAR Obreve
ENCODING 334
SWIDTH 803 0
DWIDTH 17 0
BBX 15 20 1 0
BITMAP
0C40
06C0
0780
0000
1FF0
3FF8
701C
600C
E00E
C00E
C00E
C006
C006
C00E
C00E
E00E
600C
701C
3FF8
1FF0
ENDCHAR
STARTCHAR obreve
ENCODING 335
SWIDTH 612 0
DWIDTH 13 0
BBX 11 15 1 0
BITMAP
3100
1B00
1E00
0000
3F80
7FC0
E0C0
C060
C060
C060
C060
C060
E0C0
7FC0
3F80
ENDCHAR
STARTCHAR Ohungarumlaut
ENCODING 336
SWIDTH 803 0
DWIDTH 17 0
BBX 15 20 1 0
BITMAP
01B0
0360
06C0
0000
1FF0
3FF8
701C
600C
E00E
C00E
C00E
C006
C006
C00E
C00E
E00E
600C
701C
3FF8
1FF0
ENDCHAR
STARTCHAR ohungarumlaut
ENCODING 337
SWIDTH 612 0
DWIDTH 13 0
BBX 11 16 1 0
BITMAP
06C0
0D80
1B00
0000
0000
3F80
7FC0
E0C0
C060
C060
C060
C060
C060
E0C0
7FC0
3F80
ENDCHAR
STARTCHAR OE
ENCODING 338
SWIDTH 1204 0
DWIDTH 25 0
BBX 23 16 1 0
BITMAP
1FEFFE
3FFFFE
701C00
600C00
E00C00
C00C00
C00C00
C00FFE
C00FFE
C00C00
C00C00
E00C00
E00C00
701C00
7FFFFE
1FEFFE
ENDCHAR
STARTCHAR oe
ENCODING 339
SWIDTH 1010 0
DWIDTH 21 0
BBX 19 11 1 0
BITMAP
3F1F80
7FFFC0
E0E060
C06060
C07FE0
C07FE0
C06000
C06060
E0E060
7FFFE0
3F9F80
ENDCHAR
STARTCHAR Racute
ENCODING 340
SWIDTH 744 0
DWIDTH 16 0
BBX 12 20 2 0
BITMAP
0180
0300
0600
0000
FFC0
FFE0
C070
C030
C030
C030
C030
C070
FFE0
FFE0
C070
C030
C030
C030
C030
C030
ENDCHAR
STARTCHAR racute
ENCODING 341
SWIDTH 389 0
DWIDTH 8 0
BBX 7 16 1 0
BITMAP
06
0C
18
00
00
DE
DE
E0
E0
C0
C0
C0
C0
C0
C0
C0
ENDCHAR
STARTCHAR uni0156
ENCODING 342
SWIDTH 744 0
DWIDTH 16 0
BBX 12 21 2 -5
BITMAP
FFC0
FFE0
C070
C030
C030
C030
C030
C070
FFE0
FFE0
C070
C030
C030
C030
C030
C030
0000
0000
0600
0600
0400
ENDCHAR
STARTCHAR uni0157
ENCODING 343
SWIDTH 389 0
DWIDTH 8 0
BBX 7 16 1 -5
BITMAP
DE
DE
E0
E0
C0
C0
C0
C0
C0
C0
C0
00
00
C0
C0
C0
ENDCHAR
STARTCHAR Rcaron
ENCODING 344
SWIDTH 744 0
DWIDTH 16 0
BBX 12 20 2 0
BITMAP
1980
0F00
0E00
0000
FFC0
FFE0
C070
C030
C030
C030
C030
C070
FFE0
FFE0
C070
C030
C030
C030
C030
C030
ENDCHAR
STARTCHAR rcaron
ENCODING 345
SWIDTH 389 0
DWIDTH 8 0
BBX 7 16 1 0
BITMAP
66
3C
38
00
00
DE
DE
E0
E0
C0
C0
C0
C0
C0
C0
C0
ENDCHAR
STARTCHAR Sacute
ENCODING 346
SWIDTH 719 0
DWIDTH 15 0
BBX 13 20 1 0
BITMAP
0180
0300
0300
0000
3FE0
7FF0
E030
C038
C018
C000
F000
7FE0
1FF8
0038
0018
C018
C018
E038
7FF0
3FE0
ENDCHAR
STARTCHAR sacute
ENCODING 347
SWIDTH 559 0
DWIDTH 12 0
BBX 10 16 1 0
BITMAP
0300
0600
0C00
0000
0000
7F00
FF80
C180
C000
F800
7F80
01C0
C0C0
C0C0
FFC0
7F00
ENDCHAR
STARTCHAR Scircumflex
ENCODING 348
SWIDTH 719 0
DWIDTH 15 0
BBX 13 20 1 0
BITMAP
0700
0D80
1980
0000
3FE0
7FF0
E030
C038
C018
C000
F000
7FE0
1FF8
0038
0018
C018
C018
E038
7FF0
3FE0
ENDCHAR
STARTCHAR scircumflex
ENCODING 349
SWIDTH 559 0
DWIDTH 12 0
BBX 10 16 1 0
BITMAP
1C00
1E00
3300
0000
0000
7F00
FF80
C180
C000
F800
7F80
01C0
C0C0
C0C0
FFC0
7F00
ENDCHAR
STARTCHAR Scedilla
ENCODING 350
SWIDTH 719 0
DWIDTH 15 0
BBX 13 20 1 -4
BITMAP
3FE0
7FF0
E030
C038
C018
C000
F000
7FE0
1FF8
0038
0018
C018
C018
E038
7FF0
3FE0
0200
0380
0C80
0780
ENDCHAR
STARTCHAR scedilla
ENCODING 351
SWIDTH 559 0
DWIDTH 12 0
BBX 10 15 1 -4
BITMAP
7F00
FF80
C180
C000
F800
7F80
01C0
C0C0
C0C0
FFC0
7F00
0800
0E00
3300
1E00
ENDCHAR
STARTCHAR Scaron
ENCODING 352
SWIDTH 719 0
DWIDTH 15 0
BBX 13 20 1 0
BITMAP
1980
0D80
0700
0000
3FE0
7FF0
E030
C038
C018
C000
F000
7FE0
1FF8
0038
0018
C018
C018
E038
7FF0
3FE0
ENDCHAR
STARTCHAR scaron
ENCODING 353
SWIDTH 559 0
DWIDTH 12 0
BBX 10 16 1 0
BITMAP
3300
1E00
1C00
0000
0000
7F00
FF80
C180
C000
F800
7F80
01C0
C0C0
C0C0
FFC0
7F00
ENDCHAR
STARTCHAR uni0162
ENCODING 354
SWIDTH 658 0
DWIDTH 14 0
BBX 13 20 0 -4
BITMAP
FFF8
FFF8
0300
0300
0300
0300
0300
0300
0300
0300
0300
0300
0300
0300
0300
0300
0300
0380
04C0
0780
ENDCHAR
STARTCHAR uni0163
ENCODING 355
SWIDTH 367 0
DWIDTH 8 0
BBX 6 18 1 -4
BITMAP
60
60
60
FC
FC
60
60
60
60
60
60
60
7C
3C
10
1C
64
3C
ENDCHAR
STARTCHAR Tcaron
ENCODING 356
SWIDTH 658 0
DWIDTH 14 0
BBX 13 20 0 0
BITMAP
0CC0
0780
0300
0000
FFF8
FFF8
0300
0300
0300
0300
0300
0300
0300
0300
0300
0300
0300
0300
0300
0300
ENDCHAR
STARTCHAR tcaron
ENCODING 357
SWIDTH 367 0
DWIDTH 8 0
BBX 6 16 1 0
BITMAP
0C
0C
6C
60
60
FC
FC
60
60
60
60
60
60
60
7C
3C
ENDCHAR
STARTCHAR Tbar
ENCODING 358
SWIDTH 671 0
DWIDTH 14 0
BBX 13 16 1 0
BITMAP
FFF8
FFF8
0600
0600
0600
0600
0600
7FE0
7FE0
0600
0600
0600
0600
0600
0600
0600
ENDCHAR
STARTCHAR tbar
ENCODING 359
SWIDTH 371 0
DWIDTH 8 0
BBX 6 14 1 0
BITMAP
60
60
60
FC
FC
60
60
FC
FC
60
60
60
7C
3C
ENDCHAR
STARTCHAR Utilde
ENCODING 360
SWIDTH 781 0
DWIDTH 16 0
BBX 14 20 1 0
BITMAP
0640
0FC0
0880
0000
E00C
E00C
E00C
E00C
E00C
E00C
E00C
E00C
E00C
E00C
E00C
E00C
601C
7018
3FF8
1FE0
ENDCHAR
STARTCHAR utilde
ENCODING 361
SWIDTH 588 0
DWIDTH 12 0
BBX 10 15 1 0
BITMAP
1900
3F00
2200
0000
C0C0
C0C0
C0C0
C0C0
C0C0
C0C0
C0C0
C0C0
E1C0
7FC0
3EC0
ENDCHAR
STARTCHAR Umacron
ENCODING 362
SWIDTH 781 0
DWIDTH 16 0
BBX 14 20 1 0
BITMAP
0FC0
0FC0
0000
0000
E00C
E00C
E00C
E00C
E00C
E00C
E00C
E00C
E00C
E00C
E00C
E00C
601C
7018
3FF8
1FE0
ENDCHAR
STARTCHAR umacron
ENCODING 363
SWIDTH 588 0
DWIDTH 12 0
BBX 10 15 1 0
BITMAP
3F00
3F00
0000
0000
C0C0
C0C0
C0C0
C0C0
C0C0
C0C0
C0C0
C0C0
E1C0
7FC0
3EC0
ENDCHAR
STARTCHAR Ubreve
ENCODING 364
SWIDTH 781 0
DWIDTH 16 0
BBX 14 21 1 0
BITMAP
0C40
0CC0
07C0
0000
0000
E00C
E00C
E00C
E00C
E00C
E00C
E00C
E00C
E00C
E00C
E00C
E00C
601C
7018
3FF8
1FE0
ENDCHAR
STARTCHAR ubreve
ENCODING 365
SWIDTH 588 0
DWIDTH 12 0
BBX 10 16 1 0
BITMAP
3100
3300
1F00
0000
0000
C0C0
C0C0
C0C0
C0C0
C0C0
C0C0
C0C0
C0C0
E1C0
7FC0
3EC0
ENDCHAR
STARTCHAR Uring
ENCODING 366
SWIDTH 781 0
DWIDTH 16 0
BBX 14 21 1 0
BITMAP
0780
04C0
04C0
0780
0000
E00C
E00C
E00C
E00C
E00C
E00C
E00C
E00C
E00C
E00C
E00C
E00C
601C
7018
3FF8
1FE0
ENDCHAR
STARTCHAR uring
ENCODING 367
SWIDTH 588 0
DWIDTH 12 0
BBX 10 16 1 0
BITMAP
1E00
1200
1200
1E00
0000
C0C0
C0C0
C0C0
C0C0
C0C0
C0C0
C0C0
C0C0
E1C0
7FC0
3EC0
ENDCHAR
STARTCHAR Uhungarumlaut
ENCODING 368
SWIDTH 781 0
DWIDTH 16 0
BBX 14 20 1 0
BITMAP
0330
0360
06C0
0000
E00C
E00C
E00C
E00C
E00C
E00C
E00C
E00C
E00C
E00C
E00C
E00C
601C
7018
3FF8
1FE0
ENDCHAR
STARTCHAR uhungarumlaut
ENCODING 369
SWIDTH 588 0
DWIDTH 12 0
BBX 10 16 1 0
BITMAP
0CC0
0D80
1B00
0000
0000
C0C0
C0C0
C0C0
C0C0
C0C0
C0C0
C0C0
C0C0
E1C0
7FC0
3EC0
ENDCHAR
STARTCHAR Uogonek
ENCODING 370
SWIDTH 781 0
DWIDTH 16 0
BBX 14 20 1 -4
BITMAP
E00C
E00C
E00C
E00C
E00C
E00C
E00C
E00C
E00C
E00C
E00C
E00C
601C
7018
3FF8
1FF0
0060
0040
00F0
0070
ENDCHAR
STARTCHAR uogonek
ENCODING 371
SWIDTH 588 0
DWIDTH 12 0
BBX 10 15 1 -4
BITMAP
C0C0
C0C0
C0C0
C0C0
C0C0
C0C0
C0C0
C0C0
E1C0
7FC0
3EC0
0080
0180
01C0
00C0
ENDCHAR
STARTCHAR Wcircumflex
ENCODING 372
SWIDTH 1090 0
DWIDTH 23 0
BBX 22 20 0 0
BITMAP
003800
006C00
00C400
000000
E0380C
60380C
60680C
706C1C
306C18
306C18
30C618
38C630
18C630
188630
198330
0D8360
0D8360
0F01E0
0F01E0
0701C0
ENDCHAR
STARTCHAR wcircumflex
ENCODING 373
SWIDTH 831 0
DWIDTH 17 0
BBX 16 16 1 0
BITMAP
0380
03C0
0660
0000
0000
C383
C383
C3C6
C2C6
66C6
6644
666C
346C
3C6C
3C38
3C38
ENDCHAR
STARTCHAR Ycircumflex
ENCODING 374
SWIDTH 712 0
DWIDTH 15 0
BBX 15 20 0 0
BITMAP
0380
06C0
0C60
0000
E00E
600C
3018
3838
1830
1C70
0C60
06C0
07C0
0380
0380
0380
0380
0380
0380
0380
ENDCHAR
STARTCHAR ycircumflex
ENCODING 375
SWIDTH 546 0
DWIDTH 11 0
BBX 11 20 0 -4
BITMAP
0E00
0F00
1980
0000
0000
E060
6060
60C0
30C0
3180
3980
1980
1B00
0F00
0E00
0E00
0600
0C00
7C00
7800
ENDCHAR
STARTCHAR Ydieresis
ENCODING 376
SWIDTH 712 0
DWIDTH 15 0
BBX 15 21 0 0
BITMAP
06C0
06C0
06C0
0000
0000
E00E
600C
3018
3838
1830
1C70
0C60
06C0
07C0
0380
0380
0380
0380
0380
0380
0380
ENDCHAR
STARTCHAR Zacute
ENCODING 377
SWIDTH 671 0
DWIDTH 14 0
BBX 12 20 1 0
BITMAP
0180
0300
0600
0000
FFF0
FFF0
0070
00E0
01C0
0180
0380
0700
0E00
1C00
1800
3000
7000
E000
FFF0
FFF0
ENDCHAR
STARTCHAR zacute
ENCODING 378
SWIDTH 503 0
DWIDTH 11 0
BBX 9 16 1 0
BITMAP
0600
0C00
1800
0000
0000
FF80
FF80
0700
0600
0C00
1C00
3800
7000
E000
FF80
FF80
ENDCHAR
STARTCHAR Zdotaccent
ENCODING 379
SWIDTH 671 0
DWIDTH 14 0
BBX 12 21 1 0
BITMAP
0600
0600
0600
0000
0000
FFF0
FFF0
0070
00E0
01C0
0180
0380
0700
0E00
1C00
1800
3000
7000
E000
FFF0
FFF0
ENDCHAR
STARTCHAR zdotaccent
ENCODING 380
SWIDTH 503 0
DWIDTH 11 0
BBX 9 16 1 0
BITMAP
1800
1800
1800
0000
0000
FF80
FF80
0700
0600
0C00
1C00
3800
7000
E000
FF80
FF80
ENDCHAR
STARTCHAR Zcaron
ENCODING 381
SWIDTH 671 0
DWIDTH 14 0
BBX 12 20 1 0
BITMAP
1980
0F00
0600
0000
FFF0
FFF0
0070
00E0
01C0
0180
0380
0700
0E00
1C00
1800
3000
7000
E000
FFF0
FFF0
ENDCHAR
STARTCHAR zcaron
ENCODING 382
SWIDTH 503 0
DWIDTH 11 0
BBX 9 16 1 0
BITMAP
6600
3600
1C00
0000
0000
FF80
FF80
0700
0600
0C00
1C00
3800
7000
E000
FF80
FF80
ENDCHAR
STARTCHAR uni018F
ENCODING 399
SWIDTH 784 0
DWIDTH 16 0
BBX 14 16 1 0
BITMAP
1FE0
7FF8
701C
E00C
C00C
000C
000C
FFFC
FFFC
C00C
C00C
E00C
600C
7018
3FF8
1FE0
ENDCHAR
STARTCHAR florin
ENCODING 402
SWIDTH 650 0
DWIDTH 14 0
BBX 13 19 0 -3
BITMAP
00F8
01F8
0180
0180
0380
0380
0300
1FF0
1FF0
0300
0300
0700
0600
0600
0600
0600
0E00
FC00
F800
ENDCHAR
STARTCHAR uni01E2
ENCODING 482
SWIDTH 1129 0
DWIDTH 24 0
BBX 23 20 0 0
BITMAP
0007C0
0007C0
000000
000000
003FFE
007FFE
006C00
00EC00
01CC00
018C00
038C00
070FFC
060FFC
0E0C00
1C0C00
1FFC00
3FFC00
700C00
600FFE
C00FFE
ENDCHAR
STARTCHAR uni01E3
ENCODING 483
SWIDTH 951 0
DWIDTH 20 0
BBX 18 14 1 0
BITMAP
03F000
03F000
000000
3F3F00
7FFF80
C0C0C0
00C0C0
3FFFC0
7FFFC0
C0C000
C0C0C0
C1C0C0
FFFF80
7E3F00
ENDCHAR
STARTCHAR Aringacute
ENCODING 506
SWIDTH 758 0
DWIDTH 16 0
BBX 16 24 0 0
BITMAP
0040
0080
0000
03C0
0240
0240
03C0
0000
03C0
03C0
07C0
0660
0660
0C70
0C30
1C30
1818
1818
3FFC
3FFC
300C
6006
6006
E007
ENDCHAR
STARTCHAR aringacute
ENCODING 507
SWIDTH 577 0
DWIDTH 12 0
BBX 10 19 1 0
BITMAP
0200
0600
0000
1E00
1200
1200
1E00
0000
3F00
7F80
C0C0
00C0
3FC0
7FC0
C0C0
C0C0
C1C0
FFC0
7EC0
ENDCHAR
STARTCHAR AEacute
ENCODING 508
SWIDTH 1129 0
DWIDTH 24 0
BBX 23 20 0 0
BITMAP
0000C0
0001C0
000180
000000
003FFE
007FFE
006C00
00EC00
01CC00
018C00
038C00
070FFC
060FFC
0E0C00
1C0C00
1FFC00
3FFC00
700C00
600FFE
C00FFE
ENDCHAR
STARTCHAR aeacute
ENCODING 509
SWIDTH 951 0
DWIDTH 20 0
BBX 18 16 1 0
BITMAP
003000
006000
00C000
000000
000000
3F3F00
7FFF80
C0C0C0
00C0C0
3FFFC0
7FFFC0
C0C000
C0C0C0
C1C0C0
FFFF80
7E3F00
ENDCHAR
STARTCHAR Oslashacute
ENCODING 510
SWIDTH 804 0
DWIDTH 17 0
BBX 15 21 1 -1
BITMAP
00C0
0180
0180
000E
1FFC
3FF8
703C
603C
E06E
C0CE
C1C6
C186
C306
C706
C60E
EC0E
780C
781C
3FF8
7FF0
C000
ENDCHAR
STARTCHAR oslashacute
ENCODING 511
SWIDTH 612 0
DWIDTH 13 0
BBX 11 17 1 -1
BITMAP
0300
0600
0600
0000
0060
3FC0
7FC0
E1C0
C360
C660
CC60
CC60
D860
F0C0
7FC0
7F80
C000
ENDCHAR
STARTCHAR uni0218
ENCODING 536
SWIDTH 719 0
DWIDTH 15 0
BBX 13 21 1 -5
BITMAP
3FE0
7FF0
E030
C038
C018
C000
F000
7FE0
1FF8
0038
0018
C018
C018
E038
7FF0
3FE0
0000
0300
0300
0200
0600
ENDCHAR
STARTCHAR uni0219
ENCODING 537
SWIDTH 559 0
DWIDTH 12 0
BBX 10 16 1 -5
BITMAP
7F00
FF80
C180
C000
F800
7F80
01C0
C0C0
C0C0
FFC0
7F00
0000
0C00
0C00
0C00
0800
ENDCHAR
STARTCHAR uni021A
ENCODING 538
SWIDTH 658 0
DWIDTH 14 0
BBX 13 21 0 -5
BITMAP
FFF8
FFF8
0300
0300
0300
0300
0300
0300
0300
0300
0300
0300
0300
0300
0300
0300
0000
0000
0300
0300
0200
ENDCHAR
STARTCHAR uni021B
ENCODING 539
SWIDTH 367 0
DWIDTH 8 0
BBX 6 19 1 -5
BITMAP
60
60
60
FC
FC
60
60
60
60
60
60
60
7C
3C
00
00
18
18
10
ENDCHAR
STARTCHAR uni0226
ENCODING 550
SWIDTH 758 0
DWIDTH 16 0
BBX 16 21 0 0
BITMAP
0180
0180
0180
0000
0000
03C0
03C0
07C0
0660
0660
0C70
0C30
1C30
1818
1818
3FFC
3FFC
300C
6006
6006
E007
ENDCHAR
STARTCHAR uni0227
ENCODING 551
SWIDTH 577 0
DWIDTH 12 0
BBX 10 16 1 0
BITMAP
0C00
0C00
0C00
0000
0000
3F00
7F80
C0C0
00C0
3FC0
7FC0
C0C0
C0C0
C1C0
FFC0
7EC0
ENDCHAR
STARTCHAR uni0232
ENCODING 562
SWIDTH 712 0
DWIDTH 15 0
BBX 15 20 0 0
BITMAP
07C0
07C0
0000
0000
E00E
600C
3018
3838
1830
1C70
0C60
06C0
07C0
0380
0380
0380
0380
0380
0380
0380
ENDCHAR
STARTCHAR uni0233
ENCODING 563
SWIDTH 546 0
DWIDTH 11 0
BBX 11 19 0 -4
BITMAP
1F80
1F80
0000
0000
E060
6060
60C0
30C0
3180
3980
1980
1B00
0F00
0E00
0E00
0600
0C00
7C00
7800
ENDCHAR
STARTCHAR uni0237
ENCODING 567
SWIDTH 228 0
DWIDTH 5 0
BBX 3 15 0 -4
BITMAP
60
60
60
60
60
60
60
60
60
60
60
60
60
E0
E0
ENDCHAR
STARTCHAR uni0259
ENCODING 601
SWIDTH 594 0
DWIDTH 12 0
BBX 10 11 1 0
BITMAP
3F00
7FC0
C0C0
C0C0
00C0
FFC0
FFC0
C0C0
C0C0
7FC0
3F00
ENDCHAR
STARTCHAR circumflex
ENCODING 710
SWIDTH 414 0
DWIDTH 9 0
BBX 6 3 1 13
BITMAP
38
68
CC
ENDCHAR
STARTCHAR caron
ENCODING 711
SWIDTH 406 0
DWIDTH 9 0
BBX 6 3 1 13
BITMAP
CC
6C
38
ENDCHAR
STARTCHAR breve
ENCODING 728
SWIDTH 365 0
DWIDTH 8 0
BBX 6 3 1 12
BITMAP
CC
CC
78
ENDCHAR
STARTCHAR dotaccent
ENCODING 729
SWIDTH 188 0
DWIDTH 4 0
BBX 2 3 1 13
BITMAP
C0
C0
C0
ENDCHAR
STARTCHAR ring
ENCODING 730
SWIDTH 312 0
DWIDTH 7 0
BBX 5 4 1 12
BITMAP
F0
98
98
F0
ENDCHAR
STARTCHAR ogonek
ENCODING 731
SWIDTH 247 0
DWIDTH 5 0
BBX 3 4 1 -4
BITMAP
40
C0
E0
E0
ENDCHAR
STARTCHAR tilde
ENCODING 732
SWIDTH 374 0
DWIDTH 8 0
BBX 6 3 1 12
BITMAP
64
FC
88
ENDCHAR
STARTCHAR hungarumlaut
ENCODING 733
SWIDTH 460 0
DWIDTH 10 0
BBX 8 3 1 13
BITMAP
33
66
CC
ENDCHAR
STARTCHAR gravecomb
ENCODING 768
SWIDTH 0 0
DWIDTH 0 0
BBX 4 3 1 13
BITMAP
E0
60
30
ENDCHAR
STARTCHAR acutecomb
ENCODING 769
SWIDTH 0 0
DWIDTH 0 0
BBX 4 3 1 13
BITMAP
30
60
C0
ENDCHAR
STARTCHAR uni0302
ENCODING 770
SWIDTH 0 0
DWIDTH 0 0
BBX 6 3 1 13
BITMAP
38
68
CC
ENDCHAR
STARTCHAR tildecomb
ENCODING 771
SWIDTH 0 0
DWIDTH 0 0
BBX 6 3 1 12
BITMAP
64
FC
88
ENDCHAR
STARTCHAR uni0304
ENCODING 772
SWIDTH 0 0
DWIDTH 0 0
BBX 6 2 1 12
BITMAP
FC
FC
ENDCHAR
STARTCHAR uni0306
ENCODING 774
SWIDTH 0 0
DWIDTH 0 0
BBX 6 3 1 12
BITMAP
CC
CC
78
ENDCHAR
STARTCHAR uni0307
ENCODING 775
SWIDTH 0 0
DWIDTH 0 0
BBX 2 3 1 13
BITMAP
C0
C0
C0
ENDCHAR
STARTCHAR uni0308
ENCODING 776
SWIDTH 0 0
DWIDTH 0 0
BBX 6 3 1 13
BITMAP
CC
CC
CC
ENDCHAR
STARTCHAR uni030A
ENCODING 778
SWIDTH 0 0
DWIDTH 0 0
BBX 5 4 1 12
BITMAP
F0
98
98
F0
ENDCHAR
STARTCHAR uni030B
ENCODING 779
SWIDTH 0 0
DWIDTH 0 0
BBX 8 3 1 13
BITMAP
33
66
CC
ENDCHAR
STARTCHAR uni030C
ENCODING 780
SWIDTH 0 0
DWIDTH 0 0
BBX 6 3 1 13
BITMAP
CC
6C
38
ENDCHAR
STARTCHAR uni0312
ENCODING 786
SWIDTH 0 0
DWIDTH 0 0
BBX 2 3 1 12
BITMAP
C0
C0
C0
ENDCHAR
STARTCHAR dotbelowcomb
ENCODING 803
SWIDTH 0 0
DWIDTH 0 0
BBX 2 3 1 -4
BITMAP
C0
C0
C0
ENDCHAR
STARTCHAR uni0326
ENCODING 806
SWIDTH 0 0
DWIDTH 0 0
BBX 2 3 1 -5
BITMAP
C0
C0
80
ENDCHAR
STARTCHAR uni0327
ENCODING 807
SWIDTH 0 0
DWIDTH 0 0
BBX 5 4 1 -4
BITMAP
60
38
88
F8
ENDCHAR
STARTCHAR uni0328
ENCODING 808
SWIDTH 0 0
DWIDTH 0 0
BBX 3 4 1 -4
BITMAP
40
C0
E0
E0
ENDCHAR
STARTCHAR uni0E3F
ENCODING 3647
SWIDTH 739 0
DWIDTH 16 0
BBX 12 20 2 -2
BITMAP
0600
0600
FFC0
FFE0
C670
C630
C630
C630
C670
FFE0
FFE0
C630
C630
C630
C630
C630
FFF0
FFC0
0600
0600
ENDCHAR
STARTCHAR Wgrave
ENCODING 7808
SWIDTH 1090 0
DWIDTH 23 0
BBX 22 20 0 0
BITMAP
006000
007000
003000
000000
E0380C
60380C
60680C
706C1C
306C18
306C18
30C618
38C630
18C630
188630
198330
0D8360
0D8360
0F01E0
0F01E0
0701C0
ENDCHAR
STARTCHAR wgrave
ENCODING 7809
SWIDTH 831 0
DWIDTH 17 0
BBX 16 16 1 0
BITMAP
0600
0300
0180
0000
0000
C383
C383
C3C6
C2C6
66C6
6644
666C
346C
3C6C
3C38
3C38
ENDCHAR
STARTCHAR Wacute
ENCODING 7810
SWIDTH 1090 0
DWIDTH 23 0
BBX 22 20 0 0
BITMAP
000C00
001800
001800
000000
E0380C
60380C
60680C
706C1C
306C18
306C18
30C618
38C630
18C630
188630
198330
0D8360
0D8360
0F01E0
0F01E0
0701C0
ENDCHAR
STARTCHAR wacute
ENCODING 7811
SWIDTH 831 0
DWIDTH 17 0
BBX 16 16 1 0
BITMAP
0060
00C0
0180
0000
0000
C383
C383
C3C6
C2C6
66C6
6644
666C
346C
3C6C
3C38
3C38
ENDCHAR
STARTCHAR Wdieresis
ENCODING 7812
SWIDTH 1090 0
DWIDTH 23 0
BBX 22 21 0 0
BITMAP
006C00
006C00
006C00
000000
000000
E0380C
60380C
60680C
706C1C
306C18
306C18
30C618
38C630
18C630
188630
198330
0D8360
0D8360
0F01E0
0F01E0
0701C0
ENDCHAR
STARTCHAR wdieresis
ENCODING 7813
SWIDTH 831 0
DWIDTH 17 0
BBX 16 16 1 0
BITMAP
0660
0660
0660
0000
0000
C383
C383
C3C6
C2C6
66C6
6644
666C
346C
3C6C
3C38
3C38
ENDCHAR
STARTCHAR uni1E9E
ENCODING 7838
SWIDTH 749 0
DWIDTH 16 0
BBX 14 16 1 0
BITMAP
1FF8
7FF8
7038
6060
E0C0
E180
E300
E7E0
E7F8
E01C
E00C
E00C
E00C
E01C
E7F8
E7F0
ENDCHAR
STARTCHAR uni1EA0
ENCODING 7840
SWIDTH 758 0
DWIDTH 16 0
BBX 16 20 0 -4
BITMAP
03C0
03C0
07C0
0660
0660
0C70
0C30
1C30
1818
1818
3FFC
3FFC
300C
6006
6006
E007
0000
0180
0180
0180
ENDCHAR
STARTCHAR uni1EA1
ENCODING 7841
SWIDTH 577 0
DWIDTH 12 0
BBX 10 15 1 -4
BITMAP
3F00
7F80
C0C0
00C0
3FC0
7FC0
C0C0
C0C0
C1C0
FFC0
7EC0
0000
0C00
0C00
0C00
ENDCHAR
STARTCHAR uni1EB8
ENCODING 7864
SWIDTH 661 0
DWIDTH 14 0
BBX 11 20 2 -4
BITMAP
FFE0
FFE0
C000
C000
C000
C000
C000
FFC0
FFC0
C000
C000
C000
C000
C000
FFE0
FFE0
0000
0C00
0C00
0C00
ENDCHAR
STARTCHAR uni1EB9
ENCODING 7865
SWIDTH 594 0
DWIDTH 12 0
BBX 10 15 1 -4
BITMAP
3F00
7FC0
C0C0
C0C0
FFC0
FFC0
C000
C0C0
E0C0
7FC0
3F80
0000
0C00
0C00
0C00
ENDCHAR
STARTCHAR uni1EBC
ENCODING 7868
SWIDTH 661 0
DWIDTH 14 0
BBX 11 20 2 0
BITMAP
1900
3F00
2200
0000
FFE0
FFE0
C000
C000
C000
C000
C000
FFC0
FFC0
C000
C000
C000
C000
C000
FFE0
FFE0
ENDCHAR
STARTCHAR uni1EBD
ENCODING 7869
SWIDTH 594 0
DWIDTH 12 0
BBX 10 15 1 0
BITMAP
1D00
3F00
3200
0000
3F00
7FC0
C0C0
C0C0
FFC0
FFC0
C000
C0C0
E0C0
7FC0
3F80
ENDCHAR
STARTCHAR uni1ECA
ENCODING 7882
SWIDTH 250 0
DWIDTH 5 0
BBX 2 20 2 -4
BITMAP
C0
C0
C0
C0
C0
C0
C0
C0
C0
C0
C0
C0
C0
C0
C0
C0
00
C0
C0
C0
ENDCHAR
STARTCHAR uni1ECB
ENCODING 7883
SWIDTH 228 0
DWIDTH 5 0
BBX 2 20 1 -4
BITMAP
C0
C0
C0
00
00
C0
C0
C0
C0
C0
C0
C0
C0
C0
C0
C0
00
C0
C0
C0
ENDCHAR
STARTCHAR uni1ECC
ENCODING 7884
SWIDTH 803 0
DWIDTH 17 0
BBX 15 20 1 -4
BITMAP
1FF0
3FF8
701C
600C
E00E
C00E
C00E
C006
C006
C00E
C00E
E00E
600C
701C
3FF8
1FF0
0000
0300
0300
0300
ENDCHAR
STARTCHAR uni1ECD
ENCODING 7885
SWIDTH 612 0
DWIDTH 13 0
BBX 11 15 1 -4
BITMAP
3F80
7FC0
E0C0
C060
C060
C060
C060
C060
E0C0
7FC0
3F80
0000
0C00
0C00
0C00
ENDCHAR
STARTCHAR uni1EE4
ENCODING 7908
SWIDTH 781 0
DWIDTH 16 0
BBX 14 20 1 -4
BITMAP
E00C
E00C
E00C
E00C
E00C
E00C
E00C
E00C
E00C
E00C
E00C
E00C
601C
7018
3FF8
1FE0
0000
0300
0300
0300
ENDCHAR
STARTCHAR uni1EE5
ENCODING 7909
SWIDTH 588 0
DWIDTH 12 0
BBX 10 15 1 -4
BITMAP
C0C0
C0C0
C0C0
C0C0
C0C0
C0C0
C0C0
C0C0
E1C0
7FC0
3EC0
0000
0C00
0C00
0C00
ENDCHAR
STARTCHAR Ygrave
ENCODING 7922
SWIDTH 712 0
DWIDTH 15 0
BBX 15 20 0 0
BITMAP
0600
0700
0300
0000
E00E
600C
3018
3838
1830
1C70
0C60
06C0
07C0
0380
0380
0380
0380
0380
0380
0380
ENDCHAR
STARTCHAR ygrave
ENCODING 7923
SWIDTH 546 0
DWIDTH 11 0
BBX 11 20 0 -4
BITMAP
1800
0C00
0600
0000
0000
E060
6060
60C0
30C0
3180
3980
1980
1B00
0F00
0E00
0E00
0600
0C00
7C00
7800
ENDCHAR
STARTCHAR uni1EF8
ENCODING 7928
SWIDTH 712 0
DWIDTH 15 0
BBX 15 20 0 0
BITMAP
0740
07C0
0C80
0000
E00E
600C
3018
3838
1830
1C70
0C60
06C0
07C0
0380
0380
0380
0380
0380
0380
0380
ENDCHAR
STARTCHAR uni1EF9
ENCODING 7929
SWIDTH 546 0
DWIDTH 11 0
BBX 11 19 0 -4
BITMAP
1D80
1F00
1200
0000
E060
6060
60C0
30C0
3180
3980
1980
1B00
0F00
0E00
0E00
0600
0C00
7C00
7800
ENDCHAR
STARTCHAR endash
ENCODING 8211
SWIDTH 720 0
DWIDTH 15 0
BBX 13 2 1 5
BITMAP
FFF8
FFF8
ENDCHAR
STARTCHAR emdash
ENCODING 8212
SWIDTH 979 0
DWIDTH 21 0
BBX 18 2 1 5
BITMAP
FFFFC0
FFFFC0
ENDCHAR
STARTCHAR quoteleft
ENCODING 8216
SWIDTH 229 0
DWIDTH 5 0
BBX 3 6 1 10
BITMAP
60
40
C0
C0
C0
C0
ENDCHAR
STARTCHAR quoteright
ENCODING 8217
SWIDTH 226 0
DWIDTH 5 0
BBX 3 6 1 10
BITMAP
60
60
60
40
40
80
ENDCHAR
STARTCHAR quotesinglbase
ENCODING 8218
SWIDTH 234 0
DWIDTH 5 0
BBX 3 6 1 -3
BITMAP
E0
E0
E0
40
C0
80
ENDCHAR
STARTCHAR quotedblleft
ENCODING 8220
SWIDTH 400 0
DWIDTH 8 0
BBX 6 6 1 10
BITMAP
64
4C
C8
CC
CC
CC
ENDCHAR
STARTCHAR quotedblright
ENCODING 8221
SWIDTH 397 0
DWIDTH 8 0
BBX 6 6 1 10
BITMAP
6C
6C
6C
44
4C
88
ENDCHAR
STARTCHAR quotedblbase
ENCODING 8222
SWIDTH 404 0
DWIDTH 9 0
BBX 6 6 1 -3
BITMAP
EC
EC
EC
4C
C8
88
ENDCHAR
STARTCHAR dagger
ENCODING 8224
SWIDTH 487 0
DWIDTH 10 0
BBX 10 19 0 -2
BITMAP
0C00
0C00
0C00
0C00
0C00
FFC0
FFC0
0C00
0C00
0C00
0C00
0C00
0C00
0C00
0C00
0C00
0C00
0C00
0C00
ENDCHAR
STARTCHAR daggerdbl
ENCODING 8225
SWIDTH 541 0
DWIDTH 11 0
BBX 9 19 1 -2
BITMAP
0C00
0C00
0C00
0C00
0C00
FF80
FF80
0C00
0C00
0C00
0C00
0C00
FF80
FF80
0C00
0C00
0C00
0C00
0C00
ENDCHAR
STARTCHAR bullet
ENCODING 8226
SWIDTH 392 0
DWIDTH 8 0
BBX 6 5 1 5
BITMAP
78
7C
FC
78
38
ENDCHAR
STARTCHAR ellipsis
ENCODING 8230
SWIDTH 621 0
DWIDTH 13 0
BBX 11 3 1 0
BITMAP
CE60
CE60
CE60
ENDCHAR
STARTCHAR perthousand
ENCODING 8240
SWIDTH 1053 0
DWIDTH 22 0
BBX 20 16 1 0
BITMAP
783000
CC3000
846000
846000
84C000
84C000
CD8000
798000
033DF0
036730
064210
064210
0C4210
0C4210
186730
183DF0
ENDCHAR
STARTCHAR guilsinglleft
ENCODING 8249
SWIDTH 292 0
DWIDTH 6 0
BBX 4 9 1 2
BITMAP
30
30
60
60
C0
C0
60
60
30
ENDCHAR
STARTCHAR guilsinglright
ENCODING 8250
SWIDTH 292 0
DWIDTH 6 0
BBX 4 9 1 2
BITMAP
C0
60
60
30
30
30
60
60
C0
ENDCHAR
STARTCHAR fraction
ENCODING 8260
SWIDTH 170 0
DWIDTH 4 0
BBX 9 16 -3 0
BITMAP
0180
0180
0100
0300
0200
0600
0400
0C00
0800
1800
1800
3000
3000
6000
6000
C000
ENDCHAR
STARTCHAR uni2070
ENCODING 8304
SWIDTH 432 0
DWIDTH 9 0
BBX 7 9 1 9
BITMAP
38
FE
C6
C2
C2
C2
C6
FE
7C
ENDCHAR
STARTCHAR uni2074
ENCODING 8308
SWIDTH 417 0
DWIDTH 9 0
BBX 7 9 1 9
BITMAP
0C
1C
34
64
C4
FE
FE
04
04
ENDCHAR
STARTCHAR uni2075
ENCODING 8309
SWIDTH 409 0
DWIDTH 9 0
BBX 7 9 1 9
BITMAP
FE
FE
C0
C0
FE
C6
06
FE
FC
ENDCHAR
STARTCHAR uni2076
ENCODING 8310
SWIDTH 415 0
DWIDTH 9 0
BBX 7 9 1 9
BITMAP
10
FE
C6
D8
FE
C6
C6
FE
7C
ENDCHAR
STARTCHAR uni2077
ENCODING 8311
SWIDTH 372 0
DWIDTH 8 0
BBX 7 9 0 9
BITMAP
FE
FE
06
06
0C
18
18
30
30
ENDCHAR
STARTCHAR uni2078
ENCODING 8312
SWIDTH 418 0
DWIDTH 9 0
BBX 7 9 1 9
BITMAP
10
FE
C6
C6
7C
EE
86
FE
FC
ENDCHAR
STARTCHAR uni2079
ENCODING 8313
SWIDTH 418 0
DWIDTH 9 0
BBX 7 9 1 9
BITMAP
30
FE
C6
86
FE
FE
06
FE
7C
ENDCHAR
STARTCHAR uni2080
ENCODING 8320
SWIDTH 432 0
DWIDTH 9 0
BBX 7 9 1 -3
BITMAP
7C
FE
C6
C2
C2
C2
C6
FE
38
ENDCHAR
STARTCHAR uni2081
ENCODING 8321
SWIDTH 276 0
DWIDTH 6 0
BBX 5 8 0 -2
BITMAP
38
78
D8
18
18
18
18
18
ENDCHAR
STARTCHAR uni2082
ENCODING 8322
SWIDTH 412 0
DWIDTH 9 0
BBX 7 9 1 -3
BITMAP
7C
FE
C6
06
7C
F0
C0
FE
FE
ENDCHAR
STARTCHAR uni2083
ENCODING 8323
SWIDTH 412 0
DWIDTH 9 0
BBX 7 9 1 -3
BITMAP
FC
FE
86
0E
3C
06
86
FE
30
ENDCHAR
STARTCHAR uni2084
ENCODING 8324
SWIDTH 417 0
DWIDTH 9 0
BBX 7 8 1 -2
BITMAP
1C
3C
34
64
C4
FE
FE
04
ENDCHAR
STARTCHAR uni2085
ENCODING 8325
SWIDTH 409 0
DWIDTH 9 0
BBX 7 9 1 -3
BITMAP
FE
FE
C0
FC
FE
06
C6
FE
30
ENDCHAR
STARTCHAR uni2086
ENCODING 8326
SWIDTH 415 0
DWIDTH 9 0
BBX 7 9 1 -3
BITMAP
7C
FE
C0
FC
FE
C6
C6
FE
38
ENDCHAR
STARTCHAR uni2087
ENCODING 8327
SWIDTH 372 0
DWIDTH 8 0
BBX 7 8 0 -2
BITMAP
FE
FE
06
0C
0C
18
18
30
ENDCHAR
STARTCHAR uni2088
ENCODING 8328
SWIDTH 418 0
DWIDTH 9 0
BBX 7 9 1 -3
BITMAP
7C
FE
C6
EE
FC
C6
C6
FE
30
ENDCHAR
STARTCHAR uni2089
ENCODING 8329
SWIDTH 418 0
DWIDTH 9 0
BBX 7 9 1 -3
BITMAP
7C
FE
86
C6
FE
36
C6
FC
30
ENDCHAR
STARTCHAR Euro
ENCODING 8364
SWIDTH 811 0
DWIDTH 17 0
BBX 15 16 1 0
BITMAP
07F0
1FFC
180E
3806
3006
FFE0
FFE0
3000
3000
FFE0
FFE0
3006
3806
180E
1FFC
07F8
ENDCHAR
STARTCHAR uni20B9
ENCODING 8377
SWIDTH 723 0
DWIDTH 15 0
BBX 13 16 1 0
BITMAP
FFF8
FFF8
0060
FFF8
FFF8
0070
0060
00E0
FFC0
FFE0
0060
0070
0070
0070
0070
0070
ENDCHAR
STARTCHAR uni20BA
ENCODING 8378
SWIDTH 698 0
DWIDTH 15 0
BBX 13 16 1 0
BITMAP
3000
3000
3000
3180
3780
3F00
7C00
F180
F780
3E00
7818
F018
B018
3038
3FF0
3FC0
ENDCHAR
STARTCHAR uni20BD
ENCODING 8381
SWIDTH 786 0
DWIDTH 17 0
BBX 15 16 1 0
BITMAP
3FF0
3FFC
300C
300C
300E
300E
300C
300C
FFFC
FFF8
3000
3000
FFC0
FFC0
3000
3000
ENDCHAR
STARTCHAR uni20BF
ENCODING 8383
SWIDTH 734 0
DWIDTH 15 0
BBX 12 20 2 -2
BITMAP
1B00
1B00
FFC0
FFE0
C070
C030
C030
C030
C070
FFE0
FFE0
C030
C030
C030
C030
C030
FFF0
FFC0
1B00
1B00
ENDCHAR
STARTCHAR trademark
ENCODING 8482
SWIDTH 990 0
DWIDTH 21 0
BBX 18 8 1 8
BITMAP
FEE0C0
30E1C0
30A140
30B340
309240
309E40
309E40
308C40
ENDCHAR
STARTCHAR oneeighth
ENCODING 8539
SWIDTH 843 0
DWIDTH 18 0
BBX 17 16 0 0
BITMAP
383000
783000
D86000
186000
18C000
18C000
198000
19BF00
1B3F80
032180
063380
063F00
0C2180
0C2180
183F80
183F00
ENDCHAR
STARTCHAR threeeighths
ENCODING 8540
SWIDTH 957 0
DWIDTH 20 0
BBX 18 16 1 0
BITMAP
7C0C00
FE1800
C61800
0E3000
3C3000
066000
866000
FECF80
7CDFC0
019840
019DC0
030FC0
0318C0
061840
061FC0
0C0FC0
ENDCHAR
STARTCHAR fiveeighths
ENCODING 8541
SWIDTH 951 0
DWIDTH 20 0
BBX 18 16 1 0
BITMAP
FE0C00
FE1800
C01800
FC3000
FE3000
066000
C66000
FECF80
7CDFC0
0198C0
019DC0
030F80
0318C0
0618C0
061FC0
0C0F80
ENDCHAR
STARTCHAR seveneighths
ENCODING 8542
SWIDTH 846 0
DWIDTH 18 0
BBX 17 16 0 0
BITMAP
FF3000
FF3000
066000
046000
0CC000
18C000
188000
319F00
313F80
032180
023B80
063F00
043180
0C2180
0C3F80
183F00
ENDCHAR
STARTCHAR arrowleft
ENCODING 8592
SWIDTH 808 0
DWIDTH 17 0
BBX 15 12 1 2
BITMAP
0700
0E00
1C00
3800
7000
FFFE
FFFE
7000
3800
1C00
0E00
0700
ENDCHAR
STARTCHAR arrowup
ENCODING 8593
SWIDTH 623 0
DWIDTH 13 0
BBX 11 16 1 0
BITMAP
0400
0E00
1F00
3F80
77C0
E6E0
C660
8620
0600
0600
0600
0600
0600
0600
0600
0600
ENDCHAR
STARTCHAR arrowright
ENCODING 8594
SWIDTH 808 0
DWIDTH 17 0
BBX 14 12 1 2
BITMAP
0180
00C0
0060
0030
0018
FFFC
FFFC
0018
0030
0060
00C0
0180
ENDCHAR
STARTCHAR arrowdown
ENCODING 8595
SWIDTH 625 0
DWIDTH 13 0
BBX 11 16 1 0
BITMAP
0600
0600
0600
0600
0600
0600
0600
0600
8620
C660
E6E0
77C0
3F80
1F00
0E00
0400
ENDCHAR
STARTCHAR uni2196
ENCODING 8598
SWIDTH 641 0
DWIDTH 13 0
BBX 11 11 1 5
BITMAP
FF80
FFC0
F000
F800
DC00
CE00
C700
C380
41C0
00E0
0060
ENDCHAR
STARTCHAR uni2197
ENCODING 8599
SWIDTH 641 0
DWIDTH 13 0
BBX 11 11 1 5
BITMAP
1FE0
3FE0
01E0
03E0
0760
0E60
1C60
3860
7060
E040
C000
ENDCHAR
STARTCHAR uni2198
ENCODING 8600
SWIDTH 629 0
DWIDTH 13 0
BBX 11 11 1 0
BITMAP
C000
E040
7060
3860
1C60
0E60
0760
03E0
01E0
3FE0
1FE0
ENDCHAR
STARTCHAR uni2199
ENCODING 8601
SWIDTH 629 0
DWIDTH 13 0
BBX 11 11 1 0
BITMAP
0060
40E0
41C0
C380
C700
CE00
DC00
F800
F000
FFC0
FF80
ENDCHAR
STARTCHAR partialdiff
ENCODING 8706
SWIDTH 617 0
DWIDTH 13 0
BBX 11 16 1 0
BITMAP
3E00
3F80
01C0
00C0
00C0
3F60
7FE0
E0E0
C0E0
C060
C060
C060
C0E0
E0C0
7FC0
3F80
ENDCHAR
STARTCHAR uni2206
ENCODING 8710
SWIDTH 791 0
DWIDTH 17 0
BBX 15 16 1 0
BITMAP
0380
0780
06C0
0CC0
0C60
1C60
1870
3830
3038
3018
6018
600C
C00C
C006
FFFE
FFFE
ENDCHAR
STARTCHAR product
ENCODING 8719
SWIDTH 790 0
DWIDTH 17 0
BBX 16 20 0 -4
BITMAP
FFFF
FFFF
300C
300C
300C
300C
300C
300C
300C
300C
300C
300C
300C
300C
300C
300C
300C
300C
300C
300C
ENDCHAR
STARTCHAR summation
ENCODING 8721
SWIDTH 626 0
DWIDTH 13 0
BBX 11 20 1 -4
BITMAP
FFE0
FFE0
E000
7000
3800
1C00
0C00
0E00
0700
0380
0300
0600
0E00
1C00
3800
3000
7000
E000
FFE0
FFE0
ENDCHAR
STARTCHAR minus
ENCODING 8722
SWIDTH 597 0
DWIDTH 13 0
BBX 10 2 1 6
BITMAP
FFC0
FFC0
ENDCHAR
STARTCHAR radical
ENCODING 8730
SWIDTH 699 0
DWIDTH 15 0
BBX 13 19 1 -2
BITMAP
0018
0018
0030
0030
0030
0070
0060
0060
0060
00C0
E0C0
F0C0
31C0
3980
1980
1D80
0F00
0F00
0700
ENDCHAR
STARTCHAR infinity
ENCODING 8734
SWIDTH 801 0
DWIDTH 17 0
BBX 15 7 1 3
BITMAP
3878
7EFC
C786
C386
C7C6
7EFC
3838
ENDCHAR
STARTCHAR integral
ENCODING 8747
SWIDTH 317 0
DWIDTH 7 0
BBX 6 20 0 -4
BITMAP
1C
3C
30
30
30
30
30
30
30
30
30
30
30
30
30
30
30
30
F0
F0
ENDCHAR
STARTCHAR approxequal
ENCODING 8776
SWIDTH 597 0
DWIDTH 13 0
BBX 11 9 1 2
BITMAP
3060
7CC0
CFC0
C380
1060
7CC0
7FC0
C780
C200
ENDCHAR
STARTCHAR notequal
ENCODING 8800
SWIDTH 597 0
DWIDTH 13 0
BBX 10 12 1 1
BITMAP
0180
0100
0300
FFC0
FFC0
0400
0C00
FFC0
FFC0
1000
3000
2000
ENDCHAR
STARTCHAR lessequal
ENCODING 8804
SWIDTH 597 0
DWIDTH 13 0
BBX 10 13 1 0
BITMAP
0040
03C0
0F80
7C00
F000
E000
7C00
0F80
03C0
00C0
0000
FFC0
FFC0
ENDCHAR
STARTCHAR greaterequal
ENCODING 8805
SWIDTH 597 0
DWIDTH 13 0
BBX 11 13 1 0
BITMAP
C000
F000
3E00
0F80
01E0
01E0
0780
3E00
F800
C000
0000
FFE0
FFE0
ENDCHAR
STARTCHAR lozenge
ENCODING 9674
SWIDTH 687 0
DWIDTH 14 0
BBX 12 16 1 0
BITMAP
0700
0F00
0D80
19C0
38C0
30E0
6060
E030
E030
6060
30E0
38C0
19C0
0D80
0F00
0700
ENDCHAR
STARTCHAR fi
ENCODING 64257
SWIDTH 563 0
DWIDTH 12 0
BBX 9 16 1 0
BITMAP
3D80
7D80
6180
6000
6000
FD80
FD80
6180
6180
6180
6180
6180
6180
6180
6180
6180
ENDCHAR
STARTCHAR fl
ENCODING 64258
SWIDTH 563 0
DWIDTH 12 0
BBX 9 16 1 0
BITMAP
3D80
7D80
6180
6180
6180
FD80
FD80
6180
6180
6180
6180
6180
6180
6180
6180
6180
ENDCHAR
STARTCHAR .notdef
ENCODING -1
SWIDTH 696 0
DWIDTH 15 0
BBX 12 16 1 0
BITMAP
FFF0
FFF0
F070
F0D0
D8D0
CD90
CF10
C710
C710
CF10
CD90
D8D0
F0D0
F070
FFF0
FFF0
ENDCHAR
STARTCHAR uni004A0301
ENCODING -1
SWIDTH 643 0
DWIDTH 14 0
BBX 13 20 1 0
BITMAP
0018
0030
0060
0000
0060
0060
0060
0060
0060
0060
0060
0060
0060
0060
C060
C060
C060
C0E0
FFC0
3F80
ENDCHAR
STARTCHAR i.loclTRK
ENCODING -1
SWIDTH 228 0
DWIDTH 5 0
BBX 2 16 1 0
BITMAP
C0
C0
C0
00
00
C0
C0
C0
C0
C0
C0
C0
C0
C0
C0
C0
ENDCHAR
STARTCHAR uni006A0301
ENCODING -1
SWIDTH 228 0
DWIDTH 5 0
BBX 5 20 0 -4
BITMAP
18
30
30
00
00
60
60
60
60
60
60
60
60
60
60
60
60
60
E0
E0
ENDCHAR
STARTCHAR a.ss01
ENCODING -1
SWIDTH 582 0
DWIDTH 12 0
BBX 10 11 1 0
BITMAP
3F00
7F80
E0C0
C0C0
3CC0
FFC0
C0C0
C0C0
C0C0
FFC0
7EC0
ENDCHAR
STARTCHAR aacute.ss01
ENCODING -1
SWIDTH 582 0
DWIDTH 12 0
BBX 10 16 1 0
BITMAP
0300
0600
0C00
0000
0000
3F00
7F80
E0C0
C0C0
3CC0
FFC0
C0C0
C0C0
C0C0
FFC0
7EC0
ENDCHAR
STARTCHAR abreve.ss01
ENCODING -1
SWIDTH 582 0
DWIDTH 12 0
BBX 10 15 1 0
BITMAP
3300
3300
1E00
0000
3F00
7F80
E0C0
C0C0
3CC0
FFC0
C0C0
C0C0
C0C0
FFC0
7EC0
ENDCHAR
STARTCHAR acircumflex.ss01
ENCODING -1
SWIDTH 582 0
DWIDTH 12 0
BBX 10 16 1 0
BITMAP
0C00
1E00
3300
0000
0000
3F00
7F80
E0C0
C0C0
3CC0
FFC0
C0C0
C0C0
C0C0
FFC0
7EC0
ENDCHAR
STARTCHAR adieresis.ss01
ENCODING -1
SWIDTH 582 0
DWIDTH 12 0
BBX 10 16 1 0
BITMAP
3300
3300
3300
0000
0000
3F00
7F80
E0C0
C0C0
3CC0
FFC0
C0C0
C0C0
C0C0
FFC0
7EC0
ENDCHAR
STARTCHAR uni0227.ss01
ENCODING -1
SWIDTH 582 0
DWIDTH 12 0
BBX 10 16 1 0
BITMAP
0C00
0C00
0C00
0000
0000
3F00
7F80
E0C0
C0C0
3CC0
FFC0
C0C0
C0C0
C0C0
FFC0
7EC0
ENDCHAR
STARTCHAR uni1EA1.ss01
ENCODING -1
SWIDTH 582 0
DWIDTH 12 0
BBX 10 15 1 -4
BITMAP
3F00
7F80
E0C0
C0C0
3CC0
FFC0
C0C0
C0C0
C0C0
FFC0
7EC0
0000
0C00
0C00
0C00
ENDCHAR
STARTCHAR agrave.ss01
ENCODING -1
SWIDTH 582 0
DWIDTH 12 0
BBX 10 16 1 0
BITMAP
3000
1800
0C00
0000
0000
3F00
7F80
E0C0
C0C0
3CC0
FFC0
C0C0
C0C0
C0C0
FFC0
7EC0
ENDCHAR
STARTCHAR amacron.ss01
ENCODING -1
SWIDTH 582 0
DWIDTH 12 0
BBX 10 14 1 0
BITMAP
3F00
3F00
0000
3F00
7F80
E0C0
C0C0
3CC0
FFC0
C0C0
C0C0
C0C0
FFC0
7EC0
ENDCHAR
STARTCHAR aogonek.ss01
ENCODING -1
SWIDTH 582 0
DWIDTH 12 0
BBX 10 15 1 -4
BITMAP
3F00
7F80
E0C0
C0C0
3CC0
FFC0
C0C0
C0C0
C0C0
FFC0
7EC0
0080
0180
01C0
01C0
ENDCHAR
STARTCHAR aring.ss01
ENCODING -1
SWIDTH 582 0
DWIDTH 12 0
BBX 10 16 1 0
BITMAP
1E00
1200
1200
1E00
0000
3F00
7F80
E0C0
C0C0
3CC0
FFC0
C0C0
C0C0
C0C0
FFC0
7EC0
ENDCHAR
STARTCHAR aringacute.ss01
ENCODING -1
SWIDTH 582 0
DWIDTH 12 0
BBX 10 20 1 0
BITMAP
0300
0600
0C00
0000
1E00
1200
1200
1E00
0000
3F00
7F80
E0C0
C0C0
3CC0
FFC0
C0C0
C0C0
C0C0
FFC0
7EC0
ENDCHAR
STARTCHAR atilde.ss01
ENCODING -1
SWIDTH 582 0
DWIDTH 12 0
BBX 10 15 1 0
BITMAP
1900
3F00
2200
0000
3F00
7F80
E0C0
C0C0
3CC0
FFC0
C0C0
C0C0
C0C0
FFC0
7EC0
ENDCHAR
STARTCHAR f.ss01
ENCODING -1
SWIDTH 335 0
DWIDTH 7 0
BBX 6 16 1 0
BITMAP
3C
7C
60
60
60
FC
FC
60
60
60
60
60
60
60
60
60
ENDCHAR
STARTCHAR j.ss01
ENCODING -1
SWIDTH 228 0
DWIDTH 5 0
BBX 3 20 0 -4
BITMAP
60
60
60
00
00
60
60
60
60
60
60
60
60
60
60
60
60
60
E0
E0
ENDCHAR
STARTCHAR uni0237.ss01
ENCODING -1
SWIDTH 228 0
DWIDTH 5 0
BBX 3 15 0 -4
BITMAP
60
60
60
60
60
60
60
60
60
60
60
60
60
E0
E0
ENDCHAR
STARTCHAR uni006A0301.ss01
ENCODING -1
SWIDTH 228 0
DWIDTH 5 0
BBX 5 20 0 -4
BITMAP
18
30
30
00
00
60
60
60
60
60
60
60
60
60
60
60
60
60
E0
E0
ENDCHAR
STARTCHAR jcircumflex.ss01
ENCODING -1
SWIDTH 228 0
DWIDTH 5 0
BBX 6 20 -1 -4
BITMAP
38
6C
CC
00
00
30
30
30
30
30
30
30
30
30
30
30
30
30
70
70
ENDCHAR
STARTCHAR r.ss01
ENCODING -1
SWIDTH 494 0
DWIDTH 10 0
BBX 9 11 1 0
BITMAP
DF00
DF80
E180
C180
C180
C000
C000
C000
C000
C000
C000
ENDCHAR
STARTCHAR racute.ss01
ENCODING -1
SWIDTH 494 0
DWIDTH 10 0
BBX 9 15 1 0
BITMAP
0300
0600
0C00
0000
DF00
DF80
E180
C180
C180
C000
C000
C000
C000
C000
C000
ENDCHAR
STARTCHAR rcaron.ss01
ENCODING -1
SWIDTH 494 0
DWIDTH 10 0
BBX 9 15 1 0
BITMAP
3300
1E00
1C00
0000
DF00
DF80
E180
C180
C180
C000
C000
C000
C000
C000
C000
ENDCHAR
STARTCHAR uni0157.ss01
ENCODING -1
SWIDTH 494 0
DWIDTH 10 0
BBX 9 16 1 -5
BITMAP
DF00
DF80
E180
C180
C180
C000
C000
C000
C000
C000
C000
0000
0000
C000
C000
C000
ENDCHAR
STARTCHAR t.ss01
ENCODING -1
SWIDTH 475 0
DWIDTH 10 0
BBX 9 14 0 0
BITMAP
3000
3000
3000
FF80
FF80
3000
3000
3000
3000
3080
3080
3180
3F80
1F00
ENDCHAR
STARTCHAR tbar.ss01
ENCODING -1
SWIDTH 488 0
DWIDTH 10 0
BBX 9 14 1 0
BITMAP
6000
6000
6000
FF00
FF00
6000
FC00
FC00
6000
6180
6180
6180
3F00
3E00
ENDCHAR
STARTCHAR tcaron.ss01
ENCODING -1
SWIDTH 475 0
DWIDTH 10 0
BBX 9 17 0 0
BITMAP
0600
0600
0600
3400
3000
3000
FF80
FF80
3000
3000
3000
3000
3080
3080
3180
3F80
1F00
ENDCHAR
STARTCHAR uni0163.ss01
ENCODING -1
SWIDTH 475 0
DWIDTH 10 0
BBX 9 18 0 -4
BITMAP
3000
3000
3000
FF80
FF80
3000
3000
3000
3000
3080
3080
3180
3F80
1F00
0400
0700
1900
0F00
ENDCHAR
STARTCHAR uni021B.ss01
ENCODING -1
SWIDTH 475 0
DWIDTH 10 0
BBX 9 19 0 -5
BITMAP
3000
3000
3000
FF80
FF80
3000
3000
3000
3000
3080
3080
3180
3F80
1F00
0000
0600
0600
0400
0C00
ENDCHAR
STARTCHAR y.ss01
ENCODING -1
SWIDTH 546 0
DWIDTH 11 0
BBX 11 15 0 -4
BITMAP
E060
6060
60C0
30C0
3180
3980
1980
1B00
0F00
0E00
0E00
0600
0C00
7C00
7000
ENDCHAR
STARTCHAR yacute.ss01
ENCODING -1
SWIDTH 546 0
DWIDTH 11 0
BBX 11 20 0 -4
BITMAP
0180
0300
0600
0000
0000
E060
6060
60C0
30C0
3180
3980
1980
1B00
0F00
0E00
0E00
0600
0C00
7C00
7000
ENDCHAR
STARTCHAR ycircumflex.ss01
ENCODING -1
SWIDTH 546 0
DWIDTH 11 0
BBX 11 20 0 -4
BITMAP
0E00
0F00
1980
0000
0000
E060
6060
60C0
30C0
3180
3980
1980
1B00
0F00
0E00
0E00
0600
0C00
7C00
7000
ENDCHAR
STARTCHAR ydieresis.ss01
ENCODING -1
SWIDTH 546 0
DWIDTH 11 0
BBX 11 20 0 -4
BITMAP
1980
1980
1980
0000
0000
E060
6060
60C0
30C0
3180
3980
1980
1B00
0F00
0E00
0E00
0600
0C00
7C00
7000
ENDCHAR
STARTCHAR ygrave.ss01
ENCODING -1
SWIDTH 546 0
DWIDTH 11 0
BBX 11 20 0 -4
BITMAP
1800
0C00
0600
0000
0000
E060
6060
60C0
30C0
3180
3980
1980
1B00
0F00
0E00
0E00
0600
0C00
7C00
7000
ENDCHAR
STARTCHAR uni0233.ss01
ENCODING -1
SWIDTH 546 0
DWIDTH 11 0
BBX 11 19 0 -4
BITMAP
1F80
1F80
0000
0000
E060
6060
60C0
30C0
3180
3980
1980
1B00
0F00
0E00
0E00
0600
0C00
7C00
7000
ENDCHAR
STARTCHAR uni1EF9.ss01
ENCODING -1
SWIDTH 546 0
DWIDTH 11 0
BBX 11 19 0 -4
BITMAP
1D80
1F00
1200
0000
E060
6060
60C0
30C0
3180
3980
1980
1B00
0F00
0E00
0E00
0600
0C00
7C00
7000
ENDCHAR
STARTCHAR fi.ss01
ENCODING -1
SWIDTH 563 0
DWIDTH 12 0
BBX 9 16 1 0
BITMAP
3D80
7D80
6180
6000
6000
FD80
FD80
6180
6180
6180
6180
6180
6180
6180
6180
6180
ENDCHAR
STARTCHAR fl.ss01
ENCODING -1
SWIDTH 563 0
DWIDTH 12 0
BBX 9 16 1 0
BITMAP
3D80
7D80
6180
6180
6180
FD80
FD80
6180
6180
6180
6180
6180
6180
6180
6180
6180
ENDCHAR
STARTCHAR ordfeminine.ss01
ENCODING -1
SWIDTH 490 0
DWIDTH 10 0
BBX 8 9 1 7
BITMAP
7E
67
C3
03
7F
C3
C3
C7
7F
ENDCHAR
STARTCHAR zero.tf
ENCODING -1
SWIDTH 722 0
DWIDTH 15 0
BBX 13 16 1 0
BITMAP
1FC0
7FF0
7030
E038
C018
C018
C018
C018
C018
C018
C018
C018
E038
7030
7FF0
1FC0
ENDCHAR
STARTCHAR one.tf
ENCODING -1
SWIDTH 722 0
DWIDTH 15 0
BBX 13 16 2 0
BITMAP
0F00
1F00
3F00
7700
E700
C700
0700
0700
0700
0700
0700
0700
0700
0700
FFF8
FFF8
ENDCHAR
STARTCHAR two.tf
ENCODING -1
SWIDTH 722 0
DWIDTH 15 0
BBX 13 16 1 0
BITMAP
1FE0
7FF0
6038
6018
6018
0018
0038
00F0
1FF0
7F80
7000
E000
C000
C000
FFF8
FFF8
ENDCHAR
STARTCHAR three.tf
ENCODING -1
SWIDTH 722 0
DWIDTH 15 0
BBX 13 16 1 0
BITMAP
3FE0
7FF0
6038
E018
C018
0018
0030
07E0
07F0
0038
0018
C018
C018
E038
7FF0
3FE0
ENDCHAR
STARTCHAR four.tf
ENCODING -1
SWIDTH 722 0
DWIDTH 15 0
BBX 13 16 1 0
BITMAP
00E0
01E0
03E0
0760
0E60
1C60
1860
3060
6060
E060
FFF8
FFF8
0060
0060
0060
0060
ENDCHAR
STARTCHAR five.tf
ENCODING -1
SWIDTH 722 0
DWIDTH 15 0
BBX 13 16 1 0
BITMAP
7FF0
7FF0
6000
6000
6000
6FE0
7FF0
7038
6018
0018
0018
C018
E018
6038
7FF0
1FE0
ENDCHAR
STARTCHAR six.tf
ENCODING -1
SWIDTH 722 0
DWIDTH 15 0
BBX 13 16 1 0
BITMAP
1FE0
7FF0
7038
6018
E018
C000
CFE0
FFF0
E038
E018
E018
E018
6018
6038
7FF0
1FE0
ENDCHAR
STARTCHAR seven.tf
ENCODING -1
SWIDTH 722 0
DWIDTH 15 0
BBX 13 16 1 0
BITMAP
FFF8
FFF8
0038
0030
0070
0060
00C0
01C0
0180
0380
0300
0700
0600
0C00
1C00
1800
ENDCHAR
STARTCHAR eight.tf
ENCODING -1
SWIDTH 722 0
DWIDTH 15 0
BBX 13 16 1 0
BITMAP
3FE0
7FF0
6038
E018
C018
E018
6030
3FE0
3FF0
6038
C018
C018
C018
E038
7FF0
3FE0
ENDCHAR
STARTCHAR nine.tf
ENCODING -1
SWIDTH 722 0
DWIDTH 15 0
BBX 13 16 1 0
BITMAP
3FC0
7FF0
E030
C038
C018
C018
C018
E038
7FF8
3FD8
0018
C018
C038
E030
7FF0
3FC0
ENDCHAR
STARTCHAR zero.dnom
ENCODING -1
SWIDTH 432 0
DWIDTH 9 0
BBX 7 9 1 0
BITMAP
38
FE
C6
C2
C2
C2
C6
FE
7C
ENDCHAR
STARTCHAR one.dnom
ENCODING -1
SWIDTH 276 0
DWIDTH 6 0
BBX 5 8 0 0
BITMAP
38
78
D8
18
18
18
18
18
ENDCHAR
STARTCHAR two.dnom
ENCODING -1
SWIDTH 412 0
DWIDTH 9 0
BBX 7 9 1 0
BITMAP
30
FE
C6
06
1E
FC
C0
FE
FE
ENDCHAR
STARTCHAR three.dnom
ENCODING -1
SWIDTH 412 0
DWIDTH 9 0
BBX 7 9 1 0
BITMAP
30
FE
C6
06
3C
3E
86
FE
FC
ENDCHAR
STARTCHAR four.dnom
ENCODING -1
SWIDTH 417 0
DWIDTH 9 0
BBX 7 9 1 0
BITMAP
0C
1C
34
64
C4
C4
FE
FE
04
ENDCHAR
STARTCHAR five.dnom
ENCODING -1
SWIDTH 409 0
DWIDTH 9 0
BBX 7 9 1 0
BITMAP
FE
FE
C0
C0
FE
C6
06
FE
FC
ENDCHAR
STARTCHAR six.dnom
ENCODING -1
SWIDTH 415 0
DWIDTH 9 0
BBX 7 9 1 0
BITMAP
10
FE
C6
D8
FE
C6
C6
FE
7C
ENDCHAR
STARTCHAR seven.dnom
ENCODING -1
SWIDTH 372 0
DWIDTH 8 0
BBX 7 9 0 0
BITMAP
FE
FE
06
06
0C
08
18
30
30
ENDCHAR
STARTCHAR eight.dnom
ENCODING -1
SWIDTH 418 0
DWIDTH 9 0
BBX 7 9 1 0
BITMAP
10
FE
C6
C6
7C
EE
86
FE
FC
ENDCHAR
STARTCHAR nine.dnom
ENCODING -1
SWIDTH 418 0
DWIDTH 9 0
BBX 7 9 1 0
BITMAP
30
FE
C6
86
FE
FE
06
FE
7C
ENDCHAR
STARTCHAR zero.numr
ENCODING -1
SWIDTH 432 0
DWIDTH 9 0
BBX 7 9 1 7
BITMAP
7C
FE
C6
C2
C2
C2
C6
FE
7C
ENDCHAR
STARTCHAR one.numr
ENCODING -1
SWIDTH 276 0
DWIDTH 6 0
BBX 5 8 0 8
BITMAP
38
78
D8
18
18
18
18
18
ENDCHAR
STARTCHAR two.numr
ENCODING -1
SWIDTH 412 0
DWIDTH 9 0
BBX 7 9 1 7
BITMAP
7C
FE
C6
06
7E
F8
C0
FE
FE
ENDCHAR
STARTCHAR three.numr
ENCODING -1
SWIDTH 412 0
DWIDTH 9 0
BBX 7 9 1 7
BITMAP
FC
FE
86
0E
3C
06
86
FE
FC
ENDCHAR
STARTCHAR four.numr
ENCODING -1
SWIDTH 417 0
DWIDTH 9 0
BBX 7 9 1 7
BITMAP
1C
1C
34
64
C4
FE
FE
04
04
ENDCHAR
STARTCHAR five.numr
ENCODING -1
SWIDTH 409 0
DWIDTH 9 0
BBX 7 9 1 7
BITMAP
FE
FE
C0
FC
FE
06
86
FE
7C
ENDCHAR
STARTCHAR six.numr
ENCODING -1
SWIDTH 415 0
DWIDTH 9 0
BBX 7 9 1 7
BITMAP
7C
FE
C6
D8
FE
C6
C6
FE
7C
ENDCHAR
STARTCHAR seven.numr
ENCODING -1
SWIDTH 372 0
DWIDTH 8 0
BBX 7 8 0 8
BITMAP
FE
FE
06
0C
0C
18
18
30
ENDCHAR
STARTCHAR eight.numr
ENCODING -1
SWIDTH 418 0
DWIDTH 9 0
BBX 7 9 1 7
BITMAP
7C
FE
C6
EE
7C
C6
86
FE
FC
ENDCHAR
STARTCHAR nine.numr
ENCODING -1
SWIDTH 418 0
DWIDTH 9 0
BBX 7 9 1 7
BITMAP
7C
FE
86
C6
FE
36
86
FE
7C
ENDCHAR
STARTCHAR uni030C.alt
ENCODING -1
SWIDTH 0 0
DWIDTH 0 0
BBX 2 4 1 12
BITMAP
C0
C0
C0
C0
ENDCHAR
STARTCHAR caron.alt
ENCODING -1
SWIDTH 194 0
DWIDTH 4 0
BBX 2 4 1 12
BITMAP
C0
C0
C0
C0
ENDCHAR
STARTCHAR ringacutecomb
ENCODING -1
SWIDTH 337 0
DWIDTH 7 0
BBX 5 7 1 12
BITMAP
18
30
00
F0
98
98
F0
ENDCHAR
ENDFONT
